<mxfile host="app.diagrams.net" modified="2020-11-16T14:00:43.461Z" agent="5.0 (Windows)" etag="eEsnTI27S4dc4eu35c2h" version="13.9.3" type="github">
  <diagram name="Page-1" id="c4acf3e9-155e-7222-9cf6-157b1a14988f">
    <mxGraphModel dx="1982" dy="483" grid="1" gridSize="10" guides="1" tooltips="1" connect="1" arrows="1" fold="1" page="1" pageScale="1" pageWidth="1200" pageHeight="1920" background="#ffffff" math="0" shadow="0">
      <root>
        <mxCell id="0" />
        <mxCell id="1" parent="0" />
        <mxCell id="v1feKsVr8XCNyYt42_1f-103" value="Entity" style="shape=umlFrame;whiteSpace=wrap;html=1;rounded=0;shadow=0;comic=0;labelBackgroundColor=none;strokeWidth=1;fontFamily=Verdana;fontSize=10;align=center;" parent="1" vertex="1">
          <mxGeometry x="-970" y="30" width="920" height="1440" as="geometry" />
        </mxCell>
        <mxCell id="v1feKsVr8XCNyYt42_1f-139" value="&lt;p style=&quot;margin: 0px ; margin-top: 4px ; text-align: center&quot;&gt;&lt;b&gt;&lt;i&gt;Data&lt;/i&gt;&lt;/b&gt;&lt;/p&gt;&lt;hr size=&quot;1&quot;&gt;&lt;p style=&quot;margin: 0px ; margin-left: 4px&quot;&gt;&lt;span&gt;-Total供求总体人数表&lt;/span&gt;&lt;br&gt;&lt;/p&gt;&lt;p style=&quot;margin: 0px ; margin-left: 4px&quot;&gt;-Domain按产业分组的需求人数表&lt;/p&gt;&lt;p style=&quot;margin: 0px ; margin-left: 4px&quot;&gt;-Profession按行业分组的需求人数表&lt;/p&gt;&lt;p style=&quot;margin: 0px ; margin-left: 4px&quot;&gt;-Character按用人单位性质分组的需求人数表&lt;/p&gt;&lt;p style=&quot;margin: 0px ; margin-left: 4px&quot;&gt;-Occupation按职业分组的供求人数表&lt;/p&gt;&lt;p style=&quot;margin: 0px ; margin-left: 4px&quot;&gt;-DemandOverApply需求大于求职缺口最大的前十个职业表&lt;/p&gt;&lt;p style=&quot;margin: 0px ; margin-left: 4px&quot;&gt;-ApplyOverDemand需求小于求职缺口最大的前十个职业表&lt;/p&gt;&lt;p style=&quot;margin: 0px ; margin-left: 4px&quot;&gt;-ApplySort按求职人员类别分组的求职人数表&lt;/p&gt;&lt;p style=&quot;margin: 0px ; margin-left: 4px&quot;&gt;-GenderSort按性别分组的供求人数表&lt;/p&gt;&lt;p style=&quot;margin: 0px ; margin-left: 4px&quot;&gt;-AgeSort按年龄分组的工区人数表&lt;/p&gt;&lt;p style=&quot;margin: 0px ; margin-left: 4px&quot;&gt;-DegreeSort按文化程度分组的供求人数表&lt;/p&gt;&lt;p style=&quot;margin: 0px ; margin-left: 4px&quot;&gt;-SkillSort按技术等级分组的供求人数表&lt;/p&gt;&lt;hr size=&quot;1&quot;&gt;&lt;p style=&quot;margin: 0px 0px 0px 4px&quot;&gt;&amp;nbsp;&lt;/p&gt;" style="verticalAlign=top;align=left;overflow=fill;fontSize=12;fontFamily=Helvetica;html=1;rounded=0;shadow=0;comic=0;labelBackgroundColor=none;strokeWidth=1" parent="1" vertex="1">
          <mxGeometry x="-663.75" y="690" width="320" height="250" as="geometry" />
        </mxCell>
        <mxCell id="v1feKsVr8XCNyYt42_1f-126" value="&lt;p style=&quot;margin: 0px ; margin-top: 4px ; text-align: center&quot;&gt;&lt;b&gt;&lt;i&gt;User&lt;/i&gt;&lt;/b&gt;&lt;/p&gt;&lt;hr size=&quot;1&quot;&gt;&lt;p style=&quot;margin: 0px ; margin-left: 4px&quot;&gt;- memberName: String&lt;/p&gt;&lt;p style=&quot;margin: 0px ; margin-left: 4px&quot;&gt;-user_id:String;//用户编号&lt;/p&gt;&lt;p style=&quot;margin: 0px ; margin-left: 4px&quot;&gt;-user_name:String;//用户姓名&lt;/p&gt;&lt;p style=&quot;margin: 0px ; margin-left: 4px&quot;&gt;-password:String;//用户密码&lt;/p&gt;&lt;p style=&quot;margin: 0px ; margin-left: 4px&quot;&gt;-checked:int;//是否验证（1表示已验证，0表示未验证）&lt;/p&gt;&lt;p style=&quot;margin: 0px ; margin-left: 4px&quot;&gt;-role:String;//角色（1表示省级用户，2表示市级用户，3表示监测点用户）&lt;/p&gt;&lt;p style=&quot;margin: 0px ; margin-left: 4px&quot;&gt;-valid:int;//是否可用（1表示可用，0表示被禁用）&lt;/p&gt;&lt;p style=&quot;margin: 0px ; margin-left: 4px&quot;&gt;-belong:String;//所属市&lt;/p&gt;&lt;p style=&quot;margin: 0px ; margin-left: 4px&quot;&gt;-unit:String;//标注用户来源（省、市、监测点）&lt;/p&gt;&lt;p style=&quot;margin: 0px ; margin-left: 4px&quot;&gt;-is_deleted:bool;//是否被删除（0表示被删除，1表示未被删除）&lt;/p&gt;&lt;hr size=&quot;1&quot;&gt;&lt;p style=&quot;margin: 0px 0px 0px 4px&quot;&gt;&amp;nbsp;&lt;/p&gt;" style="verticalAlign=top;align=left;overflow=fill;fontSize=12;fontFamily=Helvetica;html=1;rounded=0;shadow=0;comic=0;labelBackgroundColor=none;strokeWidth=1" parent="1" vertex="1">
          <mxGeometry x="-680" y="70" width="420" height="200" as="geometry" />
        </mxCell>
        <mxCell id="v1feKsVr8XCNyYt42_1f-109" value="SystemUser" style="swimlane;fontStyle=1;align=center;verticalAlign=top;childLayout=stackLayout;horizontal=1;startSize=26;horizontalStack=0;resizeParent=1;resizeParentMax=0;resizeLast=0;collapsible=1;marginBottom=0;" parent="1" vertex="1">
          <mxGeometry x="-280" y="310" width="200" height="89.99827586206897" as="geometry" />
        </mxCell>
        <mxCell id="v1feKsVr8XCNyYt42_1f-110" value="-system_name:String;//管理员姓名&#xa;-system_code:String;//管理员编码" style="text;strokeColor=none;fillColor=none;align=left;verticalAlign=top;spacingLeft=4;spacingRight=4;overflow=hidden;rotatable=0;points=[[0,0.5],[1,0.5]];portConstraint=eastwest;" parent="v1feKsVr8XCNyYt42_1f-109" vertex="1">
          <mxGeometry y="26" width="200" height="34" as="geometry" />
        </mxCell>
        <mxCell id="v1feKsVr8XCNyYt42_1f-111" value="" style="line;strokeWidth=1;fillColor=none;align=left;verticalAlign=middle;spacingTop=-1;spacingLeft=3;spacingRight=3;rotatable=0;labelPosition=right;points=[];portConstraint=eastwest;" parent="v1feKsVr8XCNyYt42_1f-109" vertex="1">
          <mxGeometry y="60" width="200" height="7.448275862068965" as="geometry" />
        </mxCell>
        <mxCell id="v1feKsVr8XCNyYt42_1f-112" value="+每个属性包括一个get和set方法" style="text;strokeColor=none;fillColor=none;align=left;verticalAlign=top;spacingLeft=4;spacingRight=4;overflow=hidden;rotatable=0;points=[[0,0.5],[1,0.5]];portConstraint=eastwest;" parent="v1feKsVr8XCNyYt42_1f-109" vertex="1">
          <mxGeometry y="67.44827586206897" width="200" height="22.55" as="geometry" />
        </mxCell>
        <mxCell id="v1feKsVr8XCNyYt42_1f-72" value="" style="group" parent="1" vertex="1" connectable="0">
          <mxGeometry x="60" y="550" width="1080" height="670" as="geometry" />
        </mxCell>
        <mxCell id="v1feKsVr8XCNyYt42_1f-33" value="Service" style="shape=umlFrame;whiteSpace=wrap;html=1;rounded=0;shadow=0;comic=0;labelBackgroundColor=none;strokeWidth=1;fontFamily=Verdana;fontSize=10;align=center;" parent="v1feKsVr8XCNyYt42_1f-72" vertex="1">
          <mxGeometry width="1060" height="669.9999999999999" as="geometry" />
        </mxCell>
        <mxCell id="v1feKsVr8XCNyYt42_1f-34" value="SystemStateManage" style="swimlane;fontStyle=1;align=center;verticalAlign=top;childLayout=stackLayout;horizontal=1;startSize=26;horizontalStack=0;resizeParent=1;resizeParentMax=0;resizeLast=0;collapsible=1;marginBottom=0;" parent="v1feKsVr8XCNyYt42_1f-72" vertex="1">
          <mxGeometry x="740" y="39.41661538461538" width="290" height="91.96425464190982" as="geometry" />
        </mxCell>
        <mxCell id="v1feKsVr8XCNyYt42_1f-35" value=" " style="text;strokeColor=none;fillColor=none;align=left;verticalAlign=top;spacingLeft=4;spacingRight=4;overflow=hidden;rotatable=0;points=[[0,0.5],[1,0.5]];portConstraint=eastwest;" parent="v1feKsVr8XCNyYt42_1f-34" vertex="1">
          <mxGeometry y="26" width="290" height="24.951724137931034" as="geometry" />
        </mxCell>
        <mxCell id="v1feKsVr8XCNyYt42_1f-36" value="" style="line;strokeWidth=1;fillColor=none;align=left;verticalAlign=middle;spacingTop=-1;spacingLeft=3;spacingRight=3;rotatable=0;labelPosition=right;points=[];portConstraint=eastwest;" parent="v1feKsVr8XCNyYt42_1f-34" vertex="1">
          <mxGeometry y="50.95172413793104" width="290" height="7.677453580901855" as="geometry" />
        </mxCell>
        <mxCell id="v1feKsVr8XCNyYt42_1f-37" value="+getSystemState():SystemState;查看系统状态" style="text;strokeColor=none;fillColor=none;align=left;verticalAlign=top;spacingLeft=4;spacingRight=4;overflow=hidden;rotatable=0;points=[[0,0.5],[1,0.5]];portConstraint=eastwest;" parent="v1feKsVr8XCNyYt42_1f-34" vertex="1">
          <mxGeometry y="58.62917771883289" width="290" height="33.335076923076926" as="geometry" />
        </mxCell>
        <mxCell id="v1feKsVr8XCNyYt42_1f-39" value="InspectPeriodManage" style="swimlane;fontStyle=1;align=center;verticalAlign=top;childLayout=stackLayout;horizontal=1;startSize=26;horizontalStack=0;resizeParent=1;resizeParentMax=0;resizeLast=0;collapsible=1;marginBottom=0;" parent="v1feKsVr8XCNyYt42_1f-72" vertex="1">
          <mxGeometry x="680" y="250.47692307692304" width="320" height="116.20794694960212" as="geometry" />
        </mxCell>
        <mxCell id="v1feKsVr8XCNyYt42_1f-40" value=" " style="text;strokeColor=none;fillColor=none;align=left;verticalAlign=top;spacingLeft=4;spacingRight=4;overflow=hidden;rotatable=0;points=[[0,0.5],[1,0.5]];portConstraint=eastwest;" parent="v1feKsVr8XCNyYt42_1f-39" vertex="1">
          <mxGeometry y="26" width="320" height="24.951724137931034" as="geometry" />
        </mxCell>
        <mxCell id="v1feKsVr8XCNyYt42_1f-41" value="" style="line;strokeWidth=1;fillColor=none;align=left;verticalAlign=middle;spacingTop=-1;spacingLeft=3;spacingRight=3;rotatable=0;labelPosition=right;points=[];portConstraint=eastwest;" parent="v1feKsVr8XCNyYt42_1f-39" vertex="1">
          <mxGeometry y="50.95172413793104" width="320" height="7.677453580901855" as="geometry" />
        </mxCell>
        <mxCell id="v1feKsVr8XCNyYt42_1f-42" value="+create(String begintime,String endtime):int;新增上报时限&#xa;+change(String begintime,String endtime);修改上报时限" style="text;strokeColor=none;fillColor=none;align=left;verticalAlign=top;spacingLeft=4;spacingRight=4;overflow=hidden;rotatable=0;points=[[0,0.5],[1,0.5]];portConstraint=eastwest;" parent="v1feKsVr8XCNyYt42_1f-39" vertex="1">
          <mxGeometry y="58.62917771883289" width="320" height="57.578769230769225" as="geometry" />
        </mxCell>
        <mxCell id="v1feKsVr8XCNyYt42_1f-48" value="DataManage" style="swimlane;fontStyle=1;align=center;verticalAlign=top;childLayout=stackLayout;horizontal=1;startSize=26;horizontalStack=0;resizeParent=1;resizeParentMax=0;resizeLast=0;collapsible=1;marginBottom=0;" parent="v1feKsVr8XCNyYt42_1f-72" vertex="1">
          <mxGeometry x="100" y="276.49353846153844" width="540" height="349.6565623342175" as="geometry" />
        </mxCell>
        <mxCell id="v1feKsVr8XCNyYt42_1f-49" value=" " style="text;strokeColor=none;fillColor=none;align=left;verticalAlign=top;spacingLeft=4;spacingRight=4;overflow=hidden;rotatable=0;points=[[0,0.5],[1,0.5]];portConstraint=eastwest;" parent="v1feKsVr8XCNyYt42_1f-48" vertex="1">
          <mxGeometry y="26" width="540" height="24.951724137931034" as="geometry" />
        </mxCell>
        <mxCell id="v1feKsVr8XCNyYt42_1f-50" value="" style="line;strokeWidth=1;fillColor=none;align=left;verticalAlign=middle;spacingTop=-1;spacingLeft=3;spacingRight=3;rotatable=0;labelPosition=right;points=[];portConstraint=eastwest;" parent="v1feKsVr8XCNyYt42_1f-48" vertex="1">
          <mxGeometry y="50.95172413793104" width="540" height="7.677453580901855" as="geometry" />
        </mxCell>
        <mxCell id="v1feKsVr8XCNyYt42_1f-51" value="+saveData(Data data):int;//保存已填写数据&#xa;+report_c(String username):int;//监测点上报给市级&#xa;+report_p(String username):int;//市级将监测点数据上报给省级&#xa;+pass_p(String username):int;//省级通过监测点数据审批&#xa;+back(String username):int;//数据退回&#xa;+summary_c(String cityname):Data;//市数据汇总&#xa;+summary_p(String provname):Data;//省数据汇总&#xa;+selectDataByUser(String userid,String begintime,String endtime):List&lt;Data&gt;;//获取监测点数据&#xa;+selectDataByCity(String cityname,String begintime,String endtime):List&lt;Data&gt;;//获取市数据&#xa;+selectDataByProvince(String provname,String begintime,String endtime):List&lt;Data&gt;;//获取省数据&#xa;+exportByMon(String time):int;//监测点用户导出本期数据&#xa;+exportByCity(String time):int;//市用户导出数据&#xa;+exportByProv(String time):int;//省用户导出数据&#xa;+search_p(String key):List&lt;Data&gt;;//省模糊搜索，对用户ID，名称，表名，调查期匹配&#xa;+search_c(String key):List&lt;Data&gt;;//市模糊搜索，对用户ID，名称，表名，调查期匹配&#xa;+search_m(String key):List&lt;Data&gt;;//监测点模糊搜索，对用户ID，名称，表名，调查期匹配&#xa;+comparative_analysis(String username1,String username2,String time):List&lt;Data&gt;;//两个监测点对比分析;&#xa;+trend_analysis(String username,String begintime,String endtime):List&lt;Data&gt;;//趋势分析&#xa;+checkRight(String username):int;验证用户权限" style="text;strokeColor=none;fillColor=none;align=left;verticalAlign=top;spacingLeft=4;spacingRight=4;overflow=hidden;rotatable=0;points=[[0,0.5],[1,0.5]];portConstraint=eastwest;" parent="v1feKsVr8XCNyYt42_1f-48" vertex="1">
          <mxGeometry y="58.62917771883289" width="540" height="291.02738461538456" as="geometry" />
        </mxCell>
        <mxCell id="v1feKsVr8XCNyYt42_1f-43" value="NotificationManage" style="swimlane;fontStyle=1;align=center;verticalAlign=top;childLayout=stackLayout;horizontal=1;startSize=26;horizontalStack=0;resizeParent=1;resizeParentMax=0;resizeLast=0;collapsible=1;marginBottom=0;" parent="v1feKsVr8XCNyYt42_1f-72" vertex="1">
          <mxGeometry x="440" y="39.41661538461539" width="250" height="116.20794694960212" as="geometry" />
        </mxCell>
        <mxCell id="v1feKsVr8XCNyYt42_1f-44" value=" " style="text;strokeColor=none;fillColor=none;align=left;verticalAlign=top;spacingLeft=4;spacingRight=4;overflow=hidden;rotatable=0;points=[[0,0.5],[1,0.5]];portConstraint=eastwest;" parent="v1feKsVr8XCNyYt42_1f-43" vertex="1">
          <mxGeometry y="26" width="250" height="24.951724137931034" as="geometry" />
        </mxCell>
        <mxCell id="v1feKsVr8XCNyYt42_1f-45" value="" style="line;strokeWidth=1;fillColor=none;align=left;verticalAlign=middle;spacingTop=-1;spacingLeft=3;spacingRight=3;rotatable=0;labelPosition=right;points=[];portConstraint=eastwest;" parent="v1feKsVr8XCNyYt42_1f-43" vertex="1">
          <mxGeometry y="50.95172413793104" width="250" height="7.677453580901855" as="geometry" />
        </mxCell>
        <mxCell id="v1feKsVr8XCNyYt42_1f-46" value="+release(Announcement ann ):int;//发布通知&#xa;+delete(String ann_id);//删除通知&#xa;+sellectAll():List&lt;Announcement&gt;;//浏览通知" style="text;strokeColor=none;fillColor=none;align=left;verticalAlign=top;spacingLeft=4;spacingRight=4;overflow=hidden;rotatable=0;points=[[0,0.5],[1,0.5]];portConstraint=eastwest;" parent="v1feKsVr8XCNyYt42_1f-43" vertex="1">
          <mxGeometry y="58.62917771883289" width="250" height="57.578769230769225" as="geometry" />
        </mxCell>
        <mxCell id="v1feKsVr8XCNyYt42_1f-52" value="UserManage" style="swimlane;fontStyle=1;align=center;verticalAlign=top;childLayout=stackLayout;horizontal=1;startSize=26;horizontalStack=0;resizeParent=1;resizeParentMax=0;resizeLast=0;collapsible=1;marginBottom=0;" parent="v1feKsVr8XCNyYt42_1f-72" vertex="1">
          <mxGeometry x="37.5" y="20" width="370" height="239.99745358090183" as="geometry" />
        </mxCell>
        <mxCell id="v1feKsVr8XCNyYt42_1f-54" value="" style="line;strokeWidth=1;fillColor=none;align=left;verticalAlign=middle;spacingTop=-1;spacingLeft=3;spacingRight=3;rotatable=0;labelPosition=right;points=[];portConstraint=eastwest;" parent="v1feKsVr8XCNyYt42_1f-52" vertex="1">
          <mxGeometry y="26" width="370" height="7.677453580901855" as="geometry" />
        </mxCell>
        <mxCell id="v1feKsVr8XCNyYt42_1f-55" value="+is_login(String id):int;//查询登录状态（1表示已登录，0表示未登录）&#xa;+check_user(String id):int;//是否存在用户（1表示存在，0表示不存在）&#xa;+check_pwd(String pwd):int;//验证密码&#xa;+add_user(User u):int;//增加新用户+remove_user(String id):int;//删除用户&#xa;+update_Moniuser(Moni_User u):int;//更新监测点用户信息&#xa;+update_Cityuser(City_User u):int;//更新市用户信息&#xa;+update_Provuser(Prov_User u):int;//更新省用户信息&#xa;+update_Systemuser(System_User u):int;//更新系统管理员用户信息&#xa;+update_pwd(String id):int;//修改密码&#xa;+get_user_by_id(String id):User;//通过用户id查询用户信息&#xa;+get_user_by_name(String name):User;//通过用户名查询用户信息&#xa;+check_by_id(String id):int;//通过用户id查询用户权限&#xa;+check_info(String id,Moni_User u):int;//修改备案信息&#xa;+check_info_apply(String id):int;//申请修改备案信息&#xa;&#xa;&#xa;" style="text;strokeColor=none;fillColor=none;align=left;verticalAlign=top;spacingLeft=4;spacingRight=4;overflow=hidden;rotatable=0;points=[[0,0.5],[1,0.5]];portConstraint=eastwest;" parent="v1feKsVr8XCNyYt42_1f-52" vertex="1">
          <mxGeometry y="33.677453580901854" width="370" height="206.32" as="geometry" />
        </mxCell>
        <mxCell id="v1feKsVr8XCNyYt42_1f-61" style="edgeStyle=orthogonalEdgeStyle;rounded=0;orthogonalLoop=1;jettySize=auto;html=1;exitX=0.5;exitY=0;exitDx=0;exitDy=0;endArrow=none;endFill=0;entryX=0.521;entryY=1.004;entryDx=0;entryDy=0;entryPerimeter=0;" parent="1" source="v1feKsVr8XCNyYt42_1f-48" target="v1feKsVr8XCNyYt42_1f-13" edge="1">
          <mxGeometry relative="1" as="geometry">
            <Array as="points">
              <mxPoint x="430" y="830" />
              <mxPoint x="480" y="830" />
              <mxPoint x="480" y="485" />
            </Array>
          </mxGeometry>
        </mxCell>
        <mxCell id="v1feKsVr8XCNyYt42_1f-67" style="edgeStyle=orthogonalEdgeStyle;rounded=0;orthogonalLoop=1;jettySize=auto;html=1;exitX=0.5;exitY=0;exitDx=0;exitDy=0;entryX=0.515;entryY=1.006;entryDx=0;entryDy=0;entryPerimeter=0;endArrow=none;endFill=0;" parent="1" source="v1feKsVr8XCNyYt42_1f-43" target="v1feKsVr8XCNyYt42_1f-18" edge="1">
          <mxGeometry relative="1" as="geometry">
            <Array as="points">
              <mxPoint x="622" y="608" />
            </Array>
          </mxGeometry>
        </mxCell>
        <mxCell id="v1feKsVr8XCNyYt42_1f-68" style="edgeStyle=orthogonalEdgeStyle;rounded=0;orthogonalLoop=1;jettySize=auto;html=1;exitX=0.5;exitY=0;exitDx=0;exitDy=0;entryX=0.514;entryY=1.006;entryDx=0;entryDy=0;entryPerimeter=0;endArrow=none;endFill=0;" parent="1" source="v1feKsVr8XCNyYt42_1f-39" target="v1feKsVr8XCNyYt42_1f-24" edge="1">
          <mxGeometry relative="1" as="geometry">
            <Array as="points">
              <mxPoint x="767" y="813" />
            </Array>
          </mxGeometry>
        </mxCell>
        <mxCell id="v1feKsVr8XCNyYt42_1f-69" style="edgeStyle=orthogonalEdgeStyle;rounded=0;orthogonalLoop=1;jettySize=auto;html=1;exitX=0.5;exitY=0;exitDx=0;exitDy=0;entryX=0.516;entryY=0.996;entryDx=0;entryDy=0;entryPerimeter=0;endArrow=none;endFill=0;" parent="1" source="v1feKsVr8XCNyYt42_1f-34" target="v1feKsVr8XCNyYt42_1f-29" edge="1">
          <mxGeometry relative="1" as="geometry">
            <Array as="points">
              <mxPoint x="943" y="608" />
            </Array>
          </mxGeometry>
        </mxCell>
        <mxCell id="v1feKsVr8XCNyYt42_1f-8" value="" style="group" parent="1" vertex="1" connectable="0">
          <mxGeometry x="130" y="10" width="920" height="577.24" as="geometry" />
        </mxCell>
        <mxCell id="17acba5748e5396b-1" value="Action" style="shape=umlFrame;whiteSpace=wrap;html=1;rounded=0;shadow=0;comic=0;labelBackgroundColor=none;strokeWidth=1;fontFamily=Verdana;fontSize=10;align=center;" parent="v1feKsVr8XCNyYt42_1f-8" vertex="1">
          <mxGeometry y="32.76" width="920" height="497.24" as="geometry" />
        </mxCell>
        <mxCell id="v1feKsVr8XCNyYt42_1f-26" value="SystemMonitorServlet" style="swimlane;fontStyle=1;align=center;verticalAlign=top;childLayout=stackLayout;horizontal=1;startSize=26;horizontalStack=0;resizeParent=1;resizeParentMax=0;resizeLast=0;collapsible=1;marginBottom=0;" parent="v1feKsVr8XCNyYt42_1f-8" vertex="1">
          <mxGeometry x="715" y="214.14" width="190" height="89.99517241379311" as="geometry" />
        </mxCell>
        <mxCell id="v1feKsVr8XCNyYt42_1f-27" value="+ role: String" style="text;strokeColor=none;fillColor=none;align=left;verticalAlign=top;spacingLeft=4;spacingRight=4;overflow=hidden;rotatable=0;points=[[0,0.5],[1,0.5]];portConstraint=eastwest;" parent="v1feKsVr8XCNyYt42_1f-26" vertex="1">
          <mxGeometry y="26" width="190" height="24.20689655172414" as="geometry" />
        </mxCell>
        <mxCell id="v1feKsVr8XCNyYt42_1f-28" value="" style="line;strokeWidth=1;fillColor=none;align=left;verticalAlign=middle;spacingTop=-1;spacingLeft=3;spacingRight=3;rotatable=0;labelPosition=right;points=[];portConstraint=eastwest;" parent="v1feKsVr8XCNyYt42_1f-26" vertex="1">
          <mxGeometry y="50.20689655172414" width="190" height="7.448275862068965" as="geometry" />
        </mxCell>
        <mxCell id="v1feKsVr8XCNyYt42_1f-29" value="+getSystemState();查看系统状态" style="text;strokeColor=none;fillColor=none;align=left;verticalAlign=top;spacingLeft=4;spacingRight=4;overflow=hidden;rotatable=0;points=[[0,0.5],[1,0.5]];portConstraint=eastwest;" parent="v1feKsVr8XCNyYt42_1f-26" vertex="1">
          <mxGeometry y="57.65517241379311" width="190" height="32.34" as="geometry" />
        </mxCell>
        <mxCell id="v1feKsVr8XCNyYt42_1f-25" style="edgeStyle=orthogonalEdgeStyle;rounded=0;orthogonalLoop=1;jettySize=auto;html=1;exitX=0.5;exitY=0;exitDx=0;exitDy=0;endArrow=classic;endFill=0;" parent="v1feKsVr8XCNyYt42_1f-8" source="v1feKsVr8XCNyYt42_1f-21" target="5d2195bd80daf111-18" edge="1">
          <mxGeometry relative="1" as="geometry" />
        </mxCell>
        <mxCell id="v1feKsVr8XCNyYt42_1f-21" value="InspectPeriodServlet" style="swimlane;fontStyle=1;align=center;verticalAlign=top;childLayout=stackLayout;horizontal=1;startSize=26;horizontalStack=0;resizeParent=1;resizeParentMax=0;resizeLast=0;collapsible=1;marginBottom=0;" parent="v1feKsVr8XCNyYt42_1f-8" vertex="1">
          <mxGeometry x="565" y="214.14" width="140" height="113.51517241379311" as="geometry" />
        </mxCell>
        <mxCell id="v1feKsVr8XCNyYt42_1f-22" value="+ role: String" style="text;strokeColor=none;fillColor=none;align=left;verticalAlign=top;spacingLeft=4;spacingRight=4;overflow=hidden;rotatable=0;points=[[0,0.5],[1,0.5]];portConstraint=eastwest;" parent="v1feKsVr8XCNyYt42_1f-21" vertex="1">
          <mxGeometry y="26" width="140" height="24.20689655172414" as="geometry" />
        </mxCell>
        <mxCell id="v1feKsVr8XCNyYt42_1f-23" value="" style="line;strokeWidth=1;fillColor=none;align=left;verticalAlign=middle;spacingTop=-1;spacingLeft=3;spacingRight=3;rotatable=0;labelPosition=right;points=[];portConstraint=eastwest;" parent="v1feKsVr8XCNyYt42_1f-21" vertex="1">
          <mxGeometry y="50.20689655172414" width="140" height="7.448275862068965" as="geometry" />
        </mxCell>
        <mxCell id="v1feKsVr8XCNyYt42_1f-24" value="+create();新增上报时限&#xa;+chage();修改上报时限" style="text;strokeColor=none;fillColor=none;align=left;verticalAlign=top;spacingLeft=4;spacingRight=4;overflow=hidden;rotatable=0;points=[[0,0.5],[1,0.5]];portConstraint=eastwest;" parent="v1feKsVr8XCNyYt42_1f-21" vertex="1">
          <mxGeometry y="57.65517241379311" width="140" height="55.86" as="geometry" />
        </mxCell>
        <mxCell id="v1feKsVr8XCNyYt42_1f-15" value="NotificationServlet" style="swimlane;fontStyle=1;align=center;verticalAlign=top;childLayout=stackLayout;horizontal=1;startSize=26;horizontalStack=0;resizeParent=1;resizeParentMax=0;resizeLast=0;collapsible=1;marginBottom=0;" parent="v1feKsVr8XCNyYt42_1f-8" vertex="1">
          <mxGeometry x="425" y="214.14" width="130" height="113.51724137931035" as="geometry" />
        </mxCell>
        <mxCell id="v1feKsVr8XCNyYt42_1f-16" value="+ role: String" style="text;strokeColor=none;fillColor=none;align=left;verticalAlign=top;spacingLeft=4;spacingRight=4;overflow=hidden;rotatable=0;points=[[0,0.5],[1,0.5]];portConstraint=eastwest;" parent="v1feKsVr8XCNyYt42_1f-15" vertex="1">
          <mxGeometry y="26" width="130" height="24.20689655172414" as="geometry" />
        </mxCell>
        <mxCell id="v1feKsVr8XCNyYt42_1f-17" value="" style="line;strokeWidth=1;fillColor=none;align=left;verticalAlign=middle;spacingTop=-1;spacingLeft=3;spacingRight=3;rotatable=0;labelPosition=right;points=[];portConstraint=eastwest;" parent="v1feKsVr8XCNyYt42_1f-15" vertex="1">
          <mxGeometry y="50.20689655172414" width="130" height="7.448275862068965" as="geometry" />
        </mxCell>
        <mxCell id="v1feKsVr8XCNyYt42_1f-18" value="+release();//发布通知&#xa;+delete();//删除通知&#xa;+sellectAll();//浏览通知" style="text;strokeColor=none;fillColor=none;align=left;verticalAlign=top;spacingLeft=4;spacingRight=4;overflow=hidden;rotatable=0;points=[[0,0.5],[1,0.5]];portConstraint=eastwest;" parent="v1feKsVr8XCNyYt42_1f-15" vertex="1">
          <mxGeometry y="57.65517241379311" width="130" height="55.86206896551724" as="geometry" />
        </mxCell>
        <mxCell id="v1feKsVr8XCNyYt42_1f-20" style="edgeStyle=orthogonalEdgeStyle;rounded=0;orthogonalLoop=1;jettySize=auto;html=1;exitX=0.5;exitY=0;exitDx=0;exitDy=0;endArrow=classic;endFill=0;" parent="v1feKsVr8XCNyYt42_1f-8" source="v1feKsVr8XCNyYt42_1f-15" target="5d2195bd80daf111-18" edge="1">
          <mxGeometry relative="1" as="geometry" />
        </mxCell>
        <mxCell id="v1feKsVr8XCNyYt42_1f-10" value="DataServlet" style="swimlane;fontStyle=1;align=center;verticalAlign=top;childLayout=stackLayout;horizontal=1;startSize=26;horizontalStack=0;resizeParent=1;resizeParentMax=0;resizeLast=0;collapsible=1;marginBottom=0;" parent="v1feKsVr8XCNyYt42_1f-8" vertex="1">
          <mxGeometry x="200" y="214.13793103448276" width="215" height="259.9951724137931" as="geometry" />
        </mxCell>
        <mxCell id="v1feKsVr8XCNyYt42_1f-11" value="+ role: String" style="text;strokeColor=none;fillColor=none;align=left;verticalAlign=top;spacingLeft=4;spacingRight=4;overflow=hidden;rotatable=0;points=[[0,0.5],[1,0.5]];portConstraint=eastwest;" parent="v1feKsVr8XCNyYt42_1f-10" vertex="1">
          <mxGeometry y="26" width="215" height="24.20689655172414" as="geometry" />
        </mxCell>
        <mxCell id="v1feKsVr8XCNyYt42_1f-12" value="" style="line;strokeWidth=1;fillColor=none;align=left;verticalAlign=middle;spacingTop=-1;spacingLeft=3;spacingRight=3;rotatable=0;labelPosition=right;points=[];portConstraint=eastwest;" parent="v1feKsVr8XCNyYt42_1f-10" vertex="1">
          <mxGeometry y="50.20689655172414" width="215" height="7.448275862068965" as="geometry" />
        </mxCell>
        <mxCell id="v1feKsVr8XCNyYt42_1f-13" value="-saveData():int;//保存填写内容&#xa;-report_c():int;//上报给市级&#xa;-report_p():int;//上报给省级&#xa;-pass_p():int;//省通过审批&#xa;-back():int;//数据退回&#xa;-export():int;//数据导出&#xa;-summary_c():int;//市数据汇总&#xa;-summary_p():int;//省数据汇总&#xa;-selectData():int;//获取数据&#xa;-search():int;//搜索&#xa;-comparative_analysis():int;//对比分析&#xa;-trend_analysis():int;//趋势分析&#xa;-checkRight():int;验证用户权限" style="text;strokeColor=none;fillColor=none;align=left;verticalAlign=top;spacingLeft=4;spacingRight=4;overflow=hidden;rotatable=0;points=[[0,0.5],[1,0.5]];portConstraint=eastwest;" parent="v1feKsVr8XCNyYt42_1f-10" vertex="1">
          <mxGeometry y="57.65517241379311" width="215" height="202.34" as="geometry" />
        </mxCell>
        <mxCell id="v1feKsVr8XCNyYt42_1f-1" value="UserServlet" style="swimlane;fontStyle=1;align=center;verticalAlign=top;childLayout=stackLayout;horizontal=1;startSize=26;horizontalStack=0;resizeParent=1;resizeParentMax=0;resizeLast=0;collapsible=1;marginBottom=0;" parent="v1feKsVr8XCNyYt42_1f-8" vertex="1">
          <mxGeometry x="10" y="214.13793103448276" width="185" height="209.78827586206899" as="geometry" />
        </mxCell>
        <mxCell id="v1feKsVr8XCNyYt42_1f-2" value="+ role: String&#xa;+id:String&#xa;&#xa;&#xa;" style="text;strokeColor=none;fillColor=none;align=left;verticalAlign=top;spacingLeft=4;spacingRight=4;overflow=hidden;rotatable=0;points=[[0,0.5],[1,0.5]];portConstraint=eastwest;" parent="v1feKsVr8XCNyYt42_1f-1" vertex="1">
          <mxGeometry y="26" width="185" height="34" as="geometry" />
        </mxCell>
        <mxCell id="v1feKsVr8XCNyYt42_1f-3" value="" style="line;strokeWidth=1;fillColor=none;align=left;verticalAlign=middle;spacingTop=-1;spacingLeft=3;spacingRight=3;rotatable=0;labelPosition=right;points=[];portConstraint=eastwest;" parent="v1feKsVr8XCNyYt42_1f-1" vertex="1">
          <mxGeometry y="60" width="185" height="7.448275862068965" as="geometry" />
        </mxCell>
        <mxCell id="v1feKsVr8XCNyYt42_1f-4" value="-login():int;//登录&#xa;-logout():int;//注销&#xa;-change_info():int;//保存修改信息&#xa;-record():int;//备案&#xa;-change_pwd();//修改密码&#xa;-createUser();//创建用户&#xa;-deleteUser();//删除用户&#xa;+get_record():User;//查询用户信息&#xa;&#xa;" style="text;strokeColor=none;fillColor=none;align=left;verticalAlign=top;spacingLeft=4;spacingRight=4;overflow=hidden;rotatable=0;points=[[0,0.5],[1,0.5]];portConstraint=eastwest;" parent="v1feKsVr8XCNyYt42_1f-1" vertex="1">
          <mxGeometry y="67.44827586206897" width="185" height="142.34" as="geometry" />
        </mxCell>
        <mxCell id="5d2195bd80daf111-18" value="&lt;p style=&quot;margin: 0px ; margin-top: 4px ; text-align: center&quot;&gt;&lt;b&gt;&lt;i&gt;HttpServlet&lt;/i&gt;&lt;/b&gt;&lt;/p&gt;&lt;hr size=&quot;1&quot;&gt;&lt;p style=&quot;margin: 0px ; margin-left: 4px&quot;&gt;- memberName: String&lt;/p&gt;&lt;hr size=&quot;1&quot;&gt;&lt;p style=&quot;margin: 0px 0px 0px 4px&quot;&gt;+destroy():void;&lt;/p&gt;&lt;p style=&quot;margin: 0px 0px 0px 4px&quot;&gt;+doGet(HttpServletRequest request, HttpServletResponse response):void;&lt;/p&gt;&lt;p style=&quot;margin: 0px 0px 0px 4px&quot;&gt;+doPost(HttpServletRequest request, HttpServletResponse response):void;&lt;/p&gt;" style="verticalAlign=top;align=left;overflow=fill;fontSize=12;fontFamily=Helvetica;html=1;rounded=0;shadow=0;comic=0;labelBackgroundColor=none;strokeWidth=1" parent="v1feKsVr8XCNyYt42_1f-8" vertex="1">
          <mxGeometry x="250" y="55.86206896551724" width="420" height="114.51724137931033" as="geometry" />
        </mxCell>
        <mxCell id="v1feKsVr8XCNyYt42_1f-9" style="edgeStyle=orthogonalEdgeStyle;rounded=0;orthogonalLoop=1;jettySize=auto;html=1;exitX=0.5;exitY=0;exitDx=0;exitDy=0;endArrow=classic;endFill=0;entryX=0.5;entryY=1;entryDx=0;entryDy=0;" parent="v1feKsVr8XCNyYt42_1f-8" source="v1feKsVr8XCNyYt42_1f-1" target="5d2195bd80daf111-18" edge="1">
          <mxGeometry relative="1" as="geometry">
            <mxPoint x="445" y="151.75862068965517" as="targetPoint" />
          </mxGeometry>
        </mxCell>
        <mxCell id="v1feKsVr8XCNyYt42_1f-14" style="edgeStyle=orthogonalEdgeStyle;rounded=0;orthogonalLoop=1;jettySize=auto;html=1;exitX=0.5;exitY=0;exitDx=0;exitDy=0;endArrow=classic;endFill=0;entryX=0.5;entryY=1;entryDx=0;entryDy=0;" parent="v1feKsVr8XCNyYt42_1f-8" source="v1feKsVr8XCNyYt42_1f-10" target="5d2195bd80daf111-18" edge="1">
          <mxGeometry relative="1" as="geometry">
            <mxPoint x="445" y="148.9655172413793" as="targetPoint" />
          </mxGeometry>
        </mxCell>
        <mxCell id="v1feKsVr8XCNyYt42_1f-31" style="edgeStyle=orthogonalEdgeStyle;rounded=0;orthogonalLoop=1;jettySize=auto;html=1;exitX=0.5;exitY=0;exitDx=0;exitDy=0;endArrow=classic;endFill=0;" parent="v1feKsVr8XCNyYt42_1f-8" source="v1feKsVr8XCNyYt42_1f-26" target="5d2195bd80daf111-18" edge="1">
          <mxGeometry relative="1" as="geometry">
            <mxPoint x="220" y="-60" as="targetPoint" />
          </mxGeometry>
        </mxCell>
        <mxCell id="v1feKsVr8XCNyYt42_1f-60" style="edgeStyle=orthogonalEdgeStyle;rounded=0;orthogonalLoop=1;jettySize=auto;html=1;entryX=0.5;entryY=1;entryDx=0;entryDy=0;endArrow=none;endFill=0;" parent="1" source="v1feKsVr8XCNyYt42_1f-52" target="v1feKsVr8XCNyYt42_1f-1" edge="1">
          <mxGeometry relative="1" as="geometry">
            <Array as="points" />
          </mxGeometry>
        </mxCell>
        <mxCell id="v1feKsVr8XCNyYt42_1f-122" value="MoniUser" style="swimlane;fontStyle=1;align=center;verticalAlign=top;childLayout=stackLayout;horizontal=1;startSize=26;horizontalStack=0;resizeParent=1;resizeParentMax=0;resizeLast=0;collapsible=1;marginBottom=0;" parent="1" vertex="1">
          <mxGeometry x="-930" y="309.9979310344828" width="185" height="219.99827586206897" as="geometry" />
        </mxCell>
        <mxCell id="v1feKsVr8XCNyYt42_1f-123" value="-login_id:String;//监测点登陆人id&#xa;-site_code:String;//监测点编码&#xa;-site_name:String;//监测点名称&#xa;-site_region:String;//所属地区&#xa;-profession:String;//行业&#xa;-site_address:String;//监测点地址&#xa;-liable_person:String;//责任人&#xa;-mobile_number:String;//手机号码&#xa;-phone_number:String;//电话号码&#xa;-fax_number:String;//传真号码&#xa;-valid:int;//监测点信息是否上报备案（1表示已上报备案，0表示未备案）" style="text;strokeColor=none;fillColor=none;align=left;verticalAlign=top;spacingLeft=4;spacingRight=4;overflow=hidden;rotatable=0;points=[[0,0.5],[1,0.5]];portConstraint=eastwest;" parent="v1feKsVr8XCNyYt42_1f-122" vertex="1">
          <mxGeometry y="26" width="185" height="164" as="geometry" />
        </mxCell>
        <mxCell id="v1feKsVr8XCNyYt42_1f-124" value="" style="line;strokeWidth=1;fillColor=none;align=left;verticalAlign=middle;spacingTop=-1;spacingLeft=3;spacingRight=3;rotatable=0;labelPosition=right;points=[];portConstraint=eastwest;" parent="v1feKsVr8XCNyYt42_1f-122" vertex="1">
          <mxGeometry y="190" width="185" height="7.448275862068965" as="geometry" />
        </mxCell>
        <mxCell id="v1feKsVr8XCNyYt42_1f-125" value="+每个属性包括一个get和set方法" style="text;strokeColor=none;fillColor=none;align=left;verticalAlign=top;spacingLeft=4;spacingRight=4;overflow=hidden;rotatable=0;points=[[0,0.5],[1,0.5]];portConstraint=eastwest;" parent="v1feKsVr8XCNyYt42_1f-122" vertex="1">
          <mxGeometry y="197.44827586206895" width="185" height="22.55" as="geometry" />
        </mxCell>
        <mxCell id="v1feKsVr8XCNyYt42_1f-118" value="CityUser" style="swimlane;fontStyle=1;align=center;verticalAlign=top;childLayout=stackLayout;horizontal=1;startSize=26;horizontalStack=0;resizeParent=1;resizeParentMax=0;resizeLast=0;collapsible=1;marginBottom=0;" parent="1" vertex="1">
          <mxGeometry x="-730" y="310.0079310344828" width="215" height="89.99827586206897" as="geometry" />
        </mxCell>
        <mxCell id="v1feKsVr8XCNyYt42_1f-119" value="-city_name:String;//城市名&#xa;-city_code:String;//城市编码" style="text;strokeColor=none;fillColor=none;align=left;verticalAlign=top;spacingLeft=4;spacingRight=4;overflow=hidden;rotatable=0;points=[[0,0.5],[1,0.5]];portConstraint=eastwest;" parent="v1feKsVr8XCNyYt42_1f-118" vertex="1">
          <mxGeometry y="26" width="215" height="34" as="geometry" />
        </mxCell>
        <mxCell id="v1feKsVr8XCNyYt42_1f-120" value="" style="line;strokeWidth=1;fillColor=none;align=left;verticalAlign=middle;spacingTop=-1;spacingLeft=3;spacingRight=3;rotatable=0;labelPosition=right;points=[];portConstraint=eastwest;" parent="v1feKsVr8XCNyYt42_1f-118" vertex="1">
          <mxGeometry y="60" width="215" height="7.448275862068965" as="geometry" />
        </mxCell>
        <mxCell id="v1feKsVr8XCNyYt42_1f-121" value="+每个属性包括一个get和set方法" style="text;strokeColor=none;fillColor=none;align=left;verticalAlign=top;spacingLeft=4;spacingRight=4;overflow=hidden;rotatable=0;points=[[0,0.5],[1,0.5]];portConstraint=eastwest;" parent="v1feKsVr8XCNyYt42_1f-118" vertex="1">
          <mxGeometry y="67.44827586206897" width="215" height="22.55" as="geometry" />
        </mxCell>
        <mxCell id="v1feKsVr8XCNyYt42_1f-113" value="ProvinceUser" style="swimlane;fontStyle=1;align=center;verticalAlign=top;childLayout=stackLayout;horizontal=1;startSize=26;horizontalStack=0;resizeParent=1;resizeParentMax=0;resizeLast=0;collapsible=1;marginBottom=0;" parent="1" vertex="1">
          <mxGeometry x="-490" y="310" width="190" height="99.99827586206897" as="geometry" />
        </mxCell>
        <mxCell id="v1feKsVr8XCNyYt42_1f-114" value="-province_name:String;//省名&#xa;-provice_code:String;//省编码" style="text;strokeColor=none;fillColor=none;align=left;verticalAlign=top;spacingLeft=4;spacingRight=4;overflow=hidden;rotatable=0;points=[[0,0.5],[1,0.5]];portConstraint=eastwest;" parent="v1feKsVr8XCNyYt42_1f-113" vertex="1">
          <mxGeometry y="26" width="190" height="44" as="geometry" />
        </mxCell>
        <mxCell id="v1feKsVr8XCNyYt42_1f-115" value="" style="line;strokeWidth=1;fillColor=none;align=left;verticalAlign=middle;spacingTop=-1;spacingLeft=3;spacingRight=3;rotatable=0;labelPosition=right;points=[];portConstraint=eastwest;" parent="v1feKsVr8XCNyYt42_1f-113" vertex="1">
          <mxGeometry y="70" width="190" height="7.448275862068965" as="geometry" />
        </mxCell>
        <mxCell id="v1feKsVr8XCNyYt42_1f-116" value="+每个属性包括一个get和set方法" style="text;strokeColor=none;fillColor=none;align=left;verticalAlign=top;spacingLeft=4;spacingRight=4;overflow=hidden;rotatable=0;points=[[0,0.5],[1,0.5]];portConstraint=eastwest;" parent="v1feKsVr8XCNyYt42_1f-113" vertex="1">
          <mxGeometry y="77.44827586206897" width="190" height="22.55" as="geometry" />
        </mxCell>
        <mxCell id="v1feKsVr8XCNyYt42_1f-135" value="InspectPeriod" style="swimlane;fontStyle=1;align=center;verticalAlign=top;childLayout=stackLayout;horizontal=1;startSize=26;horizontalStack=0;resizeParent=1;resizeParentMax=0;resizeLast=0;collapsible=1;marginBottom=0;" parent="1" vertex="1">
          <mxGeometry x="-717.5" y="440" width="190" height="119.99827586206897" as="geometry" />
        </mxCell>
        <mxCell id="v1feKsVr8XCNyYt42_1f-136" value="-month:String&#xa;-begindate:String&#xa;-enddate:String" style="text;strokeColor=none;fillColor=none;align=left;verticalAlign=top;spacingLeft=4;spacingRight=4;overflow=hidden;rotatable=0;points=[[0,0.5],[1,0.5]];portConstraint=eastwest;" parent="v1feKsVr8XCNyYt42_1f-135" vertex="1">
          <mxGeometry y="26" width="190" height="54" as="geometry" />
        </mxCell>
        <mxCell id="v1feKsVr8XCNyYt42_1f-137" value="" style="line;strokeWidth=1;fillColor=none;align=left;verticalAlign=middle;spacingTop=-1;spacingLeft=3;spacingRight=3;rotatable=0;labelPosition=right;points=[];portConstraint=eastwest;" parent="v1feKsVr8XCNyYt42_1f-135" vertex="1">
          <mxGeometry y="80" width="190" height="7.448275862068965" as="geometry" />
        </mxCell>
        <mxCell id="v1feKsVr8XCNyYt42_1f-138" value="+每个属性包括一个get和set方法" style="text;strokeColor=none;fillColor=none;align=left;verticalAlign=top;spacingLeft=4;spacingRight=4;overflow=hidden;rotatable=0;points=[[0,0.5],[1,0.5]];portConstraint=eastwest;" parent="v1feKsVr8XCNyYt42_1f-135" vertex="1">
          <mxGeometry y="87.44827586206897" width="190" height="32.55" as="geometry" />
        </mxCell>
        <mxCell id="v1feKsVr8XCNyYt42_1f-95" style="edgeStyle=orthogonalEdgeStyle;rounded=0;orthogonalLoop=1;jettySize=auto;html=1;exitX=0.5;exitY=0;exitDx=0;exitDy=0;endArrow=none;endFill=0;" parent="1" source="v1feKsVr8XCNyYt42_1f-91" target="v1feKsVr8XCNyYt42_1f-55" edge="1">
          <mxGeometry relative="1" as="geometry">
            <Array as="points">
              <mxPoint x="140" y="1298" />
            </Array>
          </mxGeometry>
        </mxCell>
        <mxCell id="v1feKsVr8XCNyYt42_1f-96" style="edgeStyle=orthogonalEdgeStyle;rounded=0;orthogonalLoop=1;jettySize=auto;html=1;exitX=0.5;exitY=0;exitDx=0;exitDy=0;endArrow=none;endFill=0;" parent="1" source="v1feKsVr8XCNyYt42_1f-83" target="v1feKsVr8XCNyYt42_1f-51" edge="1">
          <mxGeometry relative="1" as="geometry">
            <Array as="points">
              <mxPoint x="480" y="1528" />
            </Array>
          </mxGeometry>
        </mxCell>
        <mxCell id="v1feKsVr8XCNyYt42_1f-97" style="edgeStyle=orthogonalEdgeStyle;rounded=0;orthogonalLoop=1;jettySize=auto;html=1;exitX=0.5;exitY=0;exitDx=0;exitDy=0;endArrow=none;endFill=0;" parent="1" source="v1feKsVr8XCNyYt42_1f-87" target="v1feKsVr8XCNyYt42_1f-43" edge="1">
          <mxGeometry relative="1" as="geometry">
            <Array as="points">
              <mxPoint x="720" y="1298" />
            </Array>
          </mxGeometry>
        </mxCell>
        <mxCell id="v1feKsVr8XCNyYt42_1f-100" style="edgeStyle=orthogonalEdgeStyle;rounded=0;orthogonalLoop=1;jettySize=auto;html=1;exitX=0.5;exitY=0;exitDx=0;exitDy=0;endArrow=none;endFill=0;" parent="1" source="v1feKsVr8XCNyYt42_1f-74" target="v1feKsVr8XCNyYt42_1f-39" edge="1">
          <mxGeometry relative="1" as="geometry">
            <Array as="points">
              <mxPoint x="830" y="1503" />
            </Array>
          </mxGeometry>
        </mxCell>
        <mxCell id="v1feKsVr8XCNyYt42_1f-102" style="edgeStyle=orthogonalEdgeStyle;rounded=0;orthogonalLoop=1;jettySize=auto;html=1;exitX=0.5;exitY=0;exitDx=0;exitDy=0;endArrow=none;endFill=0;" parent="1" source="v1feKsVr8XCNyYt42_1f-79" target="v1feKsVr8XCNyYt42_1f-34" edge="1">
          <mxGeometry relative="1" as="geometry">
            <Array as="points">
              <mxPoint x="1080" y="1298" />
            </Array>
          </mxGeometry>
        </mxCell>
        <mxCell id="v1feKsVr8XCNyYt42_1f-108" style="edgeStyle=orthogonalEdgeStyle;rounded=0;orthogonalLoop=1;jettySize=auto;html=1;exitX=0.5;exitY=0;exitDx=0;exitDy=0;endArrow=classic;endFill=0;" parent="1" source="v1feKsVr8XCNyYt42_1f-109" target="v1feKsVr8XCNyYt42_1f-126" edge="1">
          <mxGeometry relative="1" as="geometry" />
        </mxCell>
        <mxCell id="v1feKsVr8XCNyYt42_1f-117" style="edgeStyle=orthogonalEdgeStyle;rounded=0;orthogonalLoop=1;jettySize=auto;html=1;exitX=0.5;exitY=0;exitDx=0;exitDy=0;endArrow=classic;endFill=0;" parent="1" source="v1feKsVr8XCNyYt42_1f-113" target="v1feKsVr8XCNyYt42_1f-126" edge="1">
          <mxGeometry relative="1" as="geometry" />
        </mxCell>
        <mxCell id="v1feKsVr8XCNyYt42_1f-127" style="edgeStyle=orthogonalEdgeStyle;rounded=0;orthogonalLoop=1;jettySize=auto;html=1;exitX=0.5;exitY=0;exitDx=0;exitDy=0;endArrow=classic;endFill=0;entryX=0.5;entryY=1;entryDx=0;entryDy=0;" parent="1" source="v1feKsVr8XCNyYt42_1f-122" target="v1feKsVr8XCNyYt42_1f-126" edge="1">
          <mxGeometry relative="1" as="geometry">
            <mxPoint x="-615" y="158.99862068965518" as="targetPoint" />
          </mxGeometry>
        </mxCell>
        <mxCell id="v1feKsVr8XCNyYt42_1f-128" style="edgeStyle=orthogonalEdgeStyle;rounded=0;orthogonalLoop=1;jettySize=auto;html=1;exitX=0.5;exitY=0;exitDx=0;exitDy=0;endArrow=classic;endFill=0;entryX=0.5;entryY=1;entryDx=0;entryDy=0;" parent="1" source="v1feKsVr8XCNyYt42_1f-118" target="v1feKsVr8XCNyYt42_1f-126" edge="1">
          <mxGeometry relative="1" as="geometry">
            <mxPoint x="-615" y="156.2055172413793" as="targetPoint" />
          </mxGeometry>
        </mxCell>
        <mxCell id="v1feKsVr8XCNyYt42_1f-159" style="edgeStyle=orthogonalEdgeStyle;rounded=0;orthogonalLoop=1;jettySize=auto;html=1;exitX=1;exitY=0.5;exitDx=0;exitDy=0;endArrow=diamondThin;endFill=1;" parent="1" source="v1feKsVr8XCNyYt42_1f-152" target="v1feKsVr8XCNyYt42_1f-139" edge="1">
          <mxGeometry relative="1" as="geometry" />
        </mxCell>
        <mxCell id="v1feKsVr8XCNyYt42_1f-160" style="edgeStyle=orthogonalEdgeStyle;rounded=0;orthogonalLoop=1;jettySize=auto;html=1;exitX=1;exitY=0.5;exitDx=0;exitDy=0;endArrow=diamondThin;endFill=1;" parent="1" source="v1feKsVr8XCNyYt42_1f-156" target="v1feKsVr8XCNyYt42_1f-139" edge="1">
          <mxGeometry relative="1" as="geometry" />
        </mxCell>
        <mxCell id="v1feKsVr8XCNyYt42_1f-161" style="edgeStyle=orthogonalEdgeStyle;rounded=0;orthogonalLoop=1;jettySize=auto;html=1;exitX=1;exitY=0.5;exitDx=0;exitDy=0;endArrow=diamondThin;endFill=1;" parent="1" source="v1feKsVr8XCNyYt42_1f-143" target="v1feKsVr8XCNyYt42_1f-139" edge="1">
          <mxGeometry relative="1" as="geometry" />
        </mxCell>
        <mxCell id="v1feKsVr8XCNyYt42_1f-162" style="edgeStyle=orthogonalEdgeStyle;rounded=0;orthogonalLoop=1;jettySize=auto;html=1;exitX=1;exitY=0.5;exitDx=0;exitDy=0;endArrow=diamondThin;endFill=1;" parent="1" source="v1feKsVr8XCNyYt42_1f-148" target="v1feKsVr8XCNyYt42_1f-139" edge="1">
          <mxGeometry relative="1" as="geometry">
            <Array as="points">
              <mxPoint x="-513.75" y="1008" />
            </Array>
          </mxGeometry>
        </mxCell>
        <mxCell id="v1feKsVr8XCNyYt42_1f-167" style="edgeStyle=orthogonalEdgeStyle;rounded=0;orthogonalLoop=1;jettySize=auto;html=1;exitX=1;exitY=0.5;exitDx=0;exitDy=0;endArrow=diamondThin;endFill=1;" parent="1" source="v1feKsVr8XCNyYt42_1f-164" target="v1feKsVr8XCNyYt42_1f-139" edge="1">
          <mxGeometry relative="1" as="geometry">
            <Array as="points">
              <mxPoint x="-553.75" y="1128" />
            </Array>
          </mxGeometry>
        </mxCell>
        <mxCell id="v1feKsVr8XCNyYt42_1f-172" style="edgeStyle=orthogonalEdgeStyle;rounded=0;orthogonalLoop=1;jettySize=auto;html=1;exitX=0;exitY=0.5;exitDx=0;exitDy=0;endArrow=diamondThin;endFill=1;" parent="1" source="v1feKsVr8XCNyYt42_1f-169" target="v1feKsVr8XCNyYt42_1f-139" edge="1">
          <mxGeometry relative="1" as="geometry">
            <Array as="points">
              <mxPoint x="-503.75" y="648" />
            </Array>
          </mxGeometry>
        </mxCell>
        <mxCell id="v1feKsVr8XCNyYt42_1f-193" style="edgeStyle=orthogonalEdgeStyle;rounded=0;orthogonalLoop=1;jettySize=auto;html=1;exitX=0;exitY=0.5;exitDx=0;exitDy=0;endArrow=diamondThin;endFill=1;" parent="1" source="v1feKsVr8XCNyYt42_1f-174" target="v1feKsVr8XCNyYt42_1f-139" edge="1">
          <mxGeometry relative="1" as="geometry">
            <Array as="points">
              <mxPoint x="-323.75" y="768" />
              <mxPoint x="-323.75" y="815" />
            </Array>
          </mxGeometry>
        </mxCell>
        <mxCell id="v1feKsVr8XCNyYt42_1f-194" style="edgeStyle=orthogonalEdgeStyle;rounded=0;orthogonalLoop=1;jettySize=auto;html=1;exitX=0;exitY=0.5;exitDx=0;exitDy=0;endArrow=diamondThin;endFill=1;" parent="1" source="v1feKsVr8XCNyYt42_1f-178" target="v1feKsVr8XCNyYt42_1f-139" edge="1">
          <mxGeometry relative="1" as="geometry">
            <Array as="points">
              <mxPoint x="-323.75" y="888" />
              <mxPoint x="-323.75" y="815" />
            </Array>
          </mxGeometry>
        </mxCell>
        <mxCell id="v1feKsVr8XCNyYt42_1f-195" style="edgeStyle=orthogonalEdgeStyle;rounded=0;orthogonalLoop=1;jettySize=auto;html=1;exitX=0;exitY=0.5;exitDx=0;exitDy=0;endArrow=diamondThin;endFill=1;" parent="1" source="v1feKsVr8XCNyYt42_1f-182" target="v1feKsVr8XCNyYt42_1f-139" edge="1">
          <mxGeometry relative="1" as="geometry">
            <Array as="points">
              <mxPoint x="-473.75" y="1008" />
            </Array>
          </mxGeometry>
        </mxCell>
        <mxCell id="v1feKsVr8XCNyYt42_1f-196" style="edgeStyle=orthogonalEdgeStyle;rounded=0;orthogonalLoop=1;jettySize=auto;html=1;exitX=0;exitY=0.5;exitDx=0;exitDy=0;endArrow=diamondThin;endFill=1;" parent="1" source="v1feKsVr8XCNyYt42_1f-186" target="v1feKsVr8XCNyYt42_1f-139" edge="1">
          <mxGeometry relative="1" as="geometry">
            <Array as="points">
              <mxPoint x="-433.75" y="1128" />
            </Array>
          </mxGeometry>
        </mxCell>
        <mxCell id="v1feKsVr8XCNyYt42_1f-197" style="edgeStyle=orthogonalEdgeStyle;rounded=0;orthogonalLoop=1;jettySize=auto;html=1;exitX=0;exitY=0.5;exitDx=0;exitDy=0;endArrow=diamondThin;endFill=1;" parent="1" source="v1feKsVr8XCNyYt42_1f-190" target="v1feKsVr8XCNyYt42_1f-139" edge="1">
          <mxGeometry relative="1" as="geometry">
            <Array as="points">
              <mxPoint x="-393.75" y="1258" />
            </Array>
          </mxGeometry>
        </mxCell>
        <mxCell id="v1feKsVr8XCNyYt42_1f-207" style="edgeStyle=orthogonalEdgeStyle;rounded=0;orthogonalLoop=1;jettySize=auto;html=1;exitX=0;exitY=0.5;exitDx=0;exitDy=0;endArrow=diamondThin;endFill=0;" parent="1" source="v1feKsVr8XCNyYt42_1f-203" target="v1feKsVr8XCNyYt42_1f-199" edge="1">
          <mxGeometry relative="1" as="geometry" />
        </mxCell>
        <mxCell id="v1feKsVr8XCNyYt42_1f-104" value="Notification" style="swimlane;fontStyle=1;align=center;verticalAlign=top;childLayout=stackLayout;horizontal=1;startSize=26;horizontalStack=0;resizeParent=1;resizeParentMax=0;resizeLast=0;collapsible=1;marginBottom=0;" parent="1" vertex="1">
          <mxGeometry x="-490" y="440" width="190" height="149.99827586206897" as="geometry" />
        </mxCell>
        <mxCell id="v1feKsVr8XCNyYt42_1f-105" value="-id:String&#xa;-title:String&#xa;-context:String&#xa;-time:String&#xa;-publisher:String" style="text;strokeColor=none;fillColor=none;align=left;verticalAlign=top;spacingLeft=4;spacingRight=4;overflow=hidden;rotatable=0;points=[[0,0.5],[1,0.5]];portConstraint=eastwest;" parent="v1feKsVr8XCNyYt42_1f-104" vertex="1">
          <mxGeometry y="26" width="190" height="84" as="geometry" />
        </mxCell>
        <mxCell id="v1feKsVr8XCNyYt42_1f-106" value="" style="line;strokeWidth=1;fillColor=none;align=left;verticalAlign=middle;spacingTop=-1;spacingLeft=3;spacingRight=3;rotatable=0;labelPosition=right;points=[];portConstraint=eastwest;" parent="v1feKsVr8XCNyYt42_1f-104" vertex="1">
          <mxGeometry y="110" width="190" height="7.448275862068965" as="geometry" />
        </mxCell>
        <mxCell id="v1feKsVr8XCNyYt42_1f-107" value="+每个属性包括一个get和set方法" style="text;strokeColor=none;fillColor=none;align=left;verticalAlign=top;spacingLeft=4;spacingRight=4;overflow=hidden;rotatable=0;points=[[0,0.5],[1,0.5]];portConstraint=eastwest;" parent="v1feKsVr8XCNyYt42_1f-104" vertex="1">
          <mxGeometry y="117.44827586206897" width="190" height="32.55" as="geometry" />
        </mxCell>
        <mxCell id="v1feKsVr8XCNyYt42_1f-131" value="SystemState" style="swimlane;fontStyle=1;align=center;verticalAlign=top;childLayout=stackLayout;horizontal=1;startSize=26;horizontalStack=0;resizeParent=1;resizeParentMax=0;resizeLast=0;collapsible=1;marginBottom=0;" parent="1" vertex="1">
          <mxGeometry x="-280" y="440" width="190" height="149.99827586206897" as="geometry" />
        </mxCell>
        <mxCell id="v1feKsVr8XCNyYt42_1f-132" value="-CPU:double&#xa;-RAM:double&#xa;-ROM:double" style="text;strokeColor=none;fillColor=none;align=left;verticalAlign=top;spacingLeft=4;spacingRight=4;overflow=hidden;rotatable=0;points=[[0,0.5],[1,0.5]];portConstraint=eastwest;" parent="v1feKsVr8XCNyYt42_1f-131" vertex="1">
          <mxGeometry y="26" width="190" height="84" as="geometry" />
        </mxCell>
        <mxCell id="v1feKsVr8XCNyYt42_1f-133" value="" style="line;strokeWidth=1;fillColor=none;align=left;verticalAlign=middle;spacingTop=-1;spacingLeft=3;spacingRight=3;rotatable=0;labelPosition=right;points=[];portConstraint=eastwest;" parent="v1feKsVr8XCNyYt42_1f-131" vertex="1">
          <mxGeometry y="110" width="190" height="7.448275862068965" as="geometry" />
        </mxCell>
        <mxCell id="v1feKsVr8XCNyYt42_1f-134" value="+每个属性包括一个get和set方法" style="text;strokeColor=none;fillColor=none;align=left;verticalAlign=top;spacingLeft=4;spacingRight=4;overflow=hidden;rotatable=0;points=[[0,0.5],[1,0.5]];portConstraint=eastwest;" parent="v1feKsVr8XCNyYt42_1f-131" vertex="1">
          <mxGeometry y="117.44827586206897" width="190" height="32.55" as="geometry" />
        </mxCell>
        <mxCell id="v1feKsVr8XCNyYt42_1f-168" value="ApplyOverDemand" style="swimlane;fontStyle=1;align=center;verticalAlign=top;childLayout=stackLayout;horizontal=1;startSize=26;horizontalStack=0;resizeParent=1;resizeParentMax=0;resizeLast=0;collapsible=1;marginBottom=0;" parent="1" vertex="1">
          <mxGeometry x="-313.75" y="610" width="250" height="109.99827586206897" as="geometry" />
        </mxCell>
        <mxCell id="v1feKsVr8XCNyYt42_1f-169" value="allData:ArrayList&lt;Map&lt;String, Data_Items&gt;&gt;" style="text;strokeColor=none;fillColor=none;align=left;verticalAlign=top;spacingLeft=4;spacingRight=4;overflow=hidden;rotatable=0;points=[[0,0.5],[1,0.5]];portConstraint=eastwest;" parent="v1feKsVr8XCNyYt42_1f-168" vertex="1">
          <mxGeometry y="26" width="250" height="24" as="geometry" />
        </mxCell>
        <mxCell id="v1feKsVr8XCNyYt42_1f-170" value="" style="line;strokeWidth=1;fillColor=none;align=left;verticalAlign=middle;spacingTop=-1;spacingLeft=3;spacingRight=3;rotatable=0;labelPosition=right;points=[];portConstraint=eastwest;" parent="v1feKsVr8XCNyYt42_1f-168" vertex="1">
          <mxGeometry y="50" width="250" height="7.448275862068965" as="geometry" />
        </mxCell>
        <mxCell id="v1feKsVr8XCNyYt42_1f-171" value="+ getSort()&#xa;+ setSort()&#xa;+ init(): void" style="text;strokeColor=none;fillColor=none;align=left;verticalAlign=top;spacingLeft=4;spacingRight=4;overflow=hidden;rotatable=0;points=[[0,0.5],[1,0.5]];portConstraint=eastwest;" parent="v1feKsVr8XCNyYt42_1f-168" vertex="1">
          <mxGeometry y="57.44827586206897" width="250" height="52.55" as="geometry" />
        </mxCell>
        <mxCell id="v1feKsVr8XCNyYt42_1f-173" value="DemandOverApply" style="swimlane;fontStyle=1;align=center;verticalAlign=top;childLayout=stackLayout;horizontal=1;startSize=26;horizontalStack=0;resizeParent=1;resizeParentMax=0;resizeLast=0;collapsible=1;marginBottom=0;" parent="1" vertex="1">
          <mxGeometry x="-313.75" y="730" width="250" height="109.99827586206897" as="geometry" />
        </mxCell>
        <mxCell id="v1feKsVr8XCNyYt42_1f-174" value="allData:ArrayList&lt;Map&lt;String, Data_Items&gt;&gt;" style="text;strokeColor=none;fillColor=none;align=left;verticalAlign=top;spacingLeft=4;spacingRight=4;overflow=hidden;rotatable=0;points=[[0,0.5],[1,0.5]];portConstraint=eastwest;" parent="v1feKsVr8XCNyYt42_1f-173" vertex="1">
          <mxGeometry y="26" width="250" height="24" as="geometry" />
        </mxCell>
        <mxCell id="v1feKsVr8XCNyYt42_1f-175" value="" style="line;strokeWidth=1;fillColor=none;align=left;verticalAlign=middle;spacingTop=-1;spacingLeft=3;spacingRight=3;rotatable=0;labelPosition=right;points=[];portConstraint=eastwest;" parent="v1feKsVr8XCNyYt42_1f-173" vertex="1">
          <mxGeometry y="50" width="250" height="7.448275862068965" as="geometry" />
        </mxCell>
        <mxCell id="v1feKsVr8XCNyYt42_1f-176" value="+ getSort()&#xa;+ setSort()&#xa;+ init(): void" style="text;strokeColor=none;fillColor=none;align=left;verticalAlign=top;spacingLeft=4;spacingRight=4;overflow=hidden;rotatable=0;points=[[0,0.5],[1,0.5]];portConstraint=eastwest;" parent="v1feKsVr8XCNyYt42_1f-173" vertex="1">
          <mxGeometry y="57.44827586206897" width="250" height="52.55" as="geometry" />
        </mxCell>
        <mxCell id="v1feKsVr8XCNyYt42_1f-155" value="AgeSort" style="swimlane;fontStyle=1;align=center;verticalAlign=top;childLayout=stackLayout;horizontal=1;startSize=26;horizontalStack=0;resizeParent=1;resizeParentMax=0;resizeLast=0;collapsible=1;marginBottom=0;" parent="1" vertex="1">
          <mxGeometry x="-956.25" y="730" width="250" height="109.99827586206897" as="geometry" />
        </mxCell>
        <mxCell id="v1feKsVr8XCNyYt42_1f-156" value="allData:ArrayList&lt;Map&lt;String, Data_Items&gt;&gt;" style="text;strokeColor=none;fillColor=none;align=left;verticalAlign=top;spacingLeft=4;spacingRight=4;overflow=hidden;rotatable=0;points=[[0,0.5],[1,0.5]];portConstraint=eastwest;" parent="v1feKsVr8XCNyYt42_1f-155" vertex="1">
          <mxGeometry y="26" width="250" height="24" as="geometry" />
        </mxCell>
        <mxCell id="v1feKsVr8XCNyYt42_1f-157" value="" style="line;strokeWidth=1;fillColor=none;align=left;verticalAlign=middle;spacingTop=-1;spacingLeft=3;spacingRight=3;rotatable=0;labelPosition=right;points=[];portConstraint=eastwest;" parent="v1feKsVr8XCNyYt42_1f-155" vertex="1">
          <mxGeometry y="50" width="250" height="7.448275862068965" as="geometry" />
        </mxCell>
        <mxCell id="v1feKsVr8XCNyYt42_1f-158" value="+ getSort()&#xa;+ setSort()&#xa;+ init(): void" style="text;strokeColor=none;fillColor=none;align=left;verticalAlign=top;spacingLeft=4;spacingRight=4;overflow=hidden;rotatable=0;points=[[0,0.5],[1,0.5]];portConstraint=eastwest;" parent="v1feKsVr8XCNyYt42_1f-155" vertex="1">
          <mxGeometry y="57.44827586206897" width="250" height="52.55" as="geometry" />
        </mxCell>
        <mxCell id="v1feKsVr8XCNyYt42_1f-151" value="GenderSort" style="swimlane;fontStyle=1;align=center;verticalAlign=top;childLayout=stackLayout;horizontal=1;startSize=26;horizontalStack=0;resizeParent=1;resizeParentMax=0;resizeLast=0;collapsible=1;marginBottom=0;" parent="1" vertex="1">
          <mxGeometry x="-956.25" y="610" width="250" height="109.99827586206897" as="geometry" />
        </mxCell>
        <mxCell id="v1feKsVr8XCNyYt42_1f-152" value="allData:ArrayList&lt;Map&lt;String, Data_Items&gt;&gt;" style="text;strokeColor=none;fillColor=none;align=left;verticalAlign=top;spacingLeft=4;spacingRight=4;overflow=hidden;rotatable=0;points=[[0,0.5],[1,0.5]];portConstraint=eastwest;" parent="v1feKsVr8XCNyYt42_1f-151" vertex="1">
          <mxGeometry y="26" width="250" height="24" as="geometry" />
        </mxCell>
        <mxCell id="v1feKsVr8XCNyYt42_1f-153" value="" style="line;strokeWidth=1;fillColor=none;align=left;verticalAlign=middle;spacingTop=-1;spacingLeft=3;spacingRight=3;rotatable=0;labelPosition=right;points=[];portConstraint=eastwest;" parent="v1feKsVr8XCNyYt42_1f-151" vertex="1">
          <mxGeometry y="50" width="250" height="7.448275862068965" as="geometry" />
        </mxCell>
        <mxCell id="v1feKsVr8XCNyYt42_1f-154" value="+ getSort()&#xa;+ setSort()&#xa;+ init(): void" style="text;strokeColor=none;fillColor=none;align=left;verticalAlign=top;spacingLeft=4;spacingRight=4;overflow=hidden;rotatable=0;points=[[0,0.5],[1,0.5]];portConstraint=eastwest;" parent="v1feKsVr8XCNyYt42_1f-151" vertex="1">
          <mxGeometry y="57.44827586206897" width="250" height="52.55" as="geometry" />
        </mxCell>
        <mxCell id="v1feKsVr8XCNyYt42_1f-142" value="DegreeSort" style="swimlane;fontStyle=1;align=center;verticalAlign=top;childLayout=stackLayout;horizontal=1;startSize=26;horizontalStack=0;resizeParent=1;resizeParentMax=0;resizeLast=0;collapsible=1;marginBottom=0;" parent="1" vertex="1">
          <mxGeometry x="-956.25" y="850" width="250" height="109.99827586206897" as="geometry" />
        </mxCell>
        <mxCell id="v1feKsVr8XCNyYt42_1f-143" value="allData:ArrayList&lt;Map&lt;String, Data_Items&gt;&gt;" style="text;strokeColor=none;fillColor=none;align=left;verticalAlign=top;spacingLeft=4;spacingRight=4;overflow=hidden;rotatable=0;points=[[0,0.5],[1,0.5]];portConstraint=eastwest;" parent="v1feKsVr8XCNyYt42_1f-142" vertex="1">
          <mxGeometry y="26" width="250" height="24" as="geometry" />
        </mxCell>
        <mxCell id="v1feKsVr8XCNyYt42_1f-144" value="" style="line;strokeWidth=1;fillColor=none;align=left;verticalAlign=middle;spacingTop=-1;spacingLeft=3;spacingRight=3;rotatable=0;labelPosition=right;points=[];portConstraint=eastwest;" parent="v1feKsVr8XCNyYt42_1f-142" vertex="1">
          <mxGeometry y="50" width="250" height="7.448275862068965" as="geometry" />
        </mxCell>
        <mxCell id="v1feKsVr8XCNyYt42_1f-145" value="+ getSort()&#xa;+ setSort()&#xa;+ init(): void" style="text;strokeColor=none;fillColor=none;align=left;verticalAlign=top;spacingLeft=4;spacingRight=4;overflow=hidden;rotatable=0;points=[[0,0.5],[1,0.5]];portConstraint=eastwest;" parent="v1feKsVr8XCNyYt42_1f-142" vertex="1">
          <mxGeometry y="57.44827586206897" width="250" height="52.55" as="geometry" />
        </mxCell>
        <mxCell id="v1feKsVr8XCNyYt42_1f-177" value="Occupation" style="swimlane;fontStyle=1;align=center;verticalAlign=top;childLayout=stackLayout;horizontal=1;startSize=26;horizontalStack=0;resizeParent=1;resizeParentMax=0;resizeLast=0;collapsible=1;marginBottom=0;" parent="1" vertex="1">
          <mxGeometry x="-313.75" y="850" width="250" height="109.99827586206897" as="geometry" />
        </mxCell>
        <mxCell id="v1feKsVr8XCNyYt42_1f-178" value="allData:ArrayList&lt;Map&lt;String, Data_Items&gt;&gt;" style="text;strokeColor=none;fillColor=none;align=left;verticalAlign=top;spacingLeft=4;spacingRight=4;overflow=hidden;rotatable=0;points=[[0,0.5],[1,0.5]];portConstraint=eastwest;" parent="v1feKsVr8XCNyYt42_1f-177" vertex="1">
          <mxGeometry y="26" width="250" height="24" as="geometry" />
        </mxCell>
        <mxCell id="v1feKsVr8XCNyYt42_1f-179" value="" style="line;strokeWidth=1;fillColor=none;align=left;verticalAlign=middle;spacingTop=-1;spacingLeft=3;spacingRight=3;rotatable=0;labelPosition=right;points=[];portConstraint=eastwest;" parent="v1feKsVr8XCNyYt42_1f-177" vertex="1">
          <mxGeometry y="50" width="250" height="7.448275862068965" as="geometry" />
        </mxCell>
        <mxCell id="v1feKsVr8XCNyYt42_1f-180" value="+ getSort()&#xa;+ setSort()&#xa;+ init(): void" style="text;strokeColor=none;fillColor=none;align=left;verticalAlign=top;spacingLeft=4;spacingRight=4;overflow=hidden;rotatable=0;points=[[0,0.5],[1,0.5]];portConstraint=eastwest;" parent="v1feKsVr8XCNyYt42_1f-177" vertex="1">
          <mxGeometry y="57.44827586206897" width="250" height="52.55" as="geometry" />
        </mxCell>
        <mxCell id="v1feKsVr8XCNyYt42_1f-181" value="Character" style="swimlane;fontStyle=1;align=center;verticalAlign=top;childLayout=stackLayout;horizontal=1;startSize=26;horizontalStack=0;resizeParent=1;resizeParentMax=0;resizeLast=0;collapsible=1;marginBottom=0;" parent="1" vertex="1">
          <mxGeometry x="-313.75" y="970" width="250" height="109.99827586206897" as="geometry" />
        </mxCell>
        <mxCell id="v1feKsVr8XCNyYt42_1f-182" value="allData:ArrayList&lt;Map&lt;String, Data_Items&gt;&gt;" style="text;strokeColor=none;fillColor=none;align=left;verticalAlign=top;spacingLeft=4;spacingRight=4;overflow=hidden;rotatable=0;points=[[0,0.5],[1,0.5]];portConstraint=eastwest;" parent="v1feKsVr8XCNyYt42_1f-181" vertex="1">
          <mxGeometry y="26" width="250" height="24" as="geometry" />
        </mxCell>
        <mxCell id="v1feKsVr8XCNyYt42_1f-183" value="" style="line;strokeWidth=1;fillColor=none;align=left;verticalAlign=middle;spacingTop=-1;spacingLeft=3;spacingRight=3;rotatable=0;labelPosition=right;points=[];portConstraint=eastwest;" parent="v1feKsVr8XCNyYt42_1f-181" vertex="1">
          <mxGeometry y="50" width="250" height="7.448275862068965" as="geometry" />
        </mxCell>
        <mxCell id="v1feKsVr8XCNyYt42_1f-184" value="+ getSort()&#xa;+ setSort()&#xa;+ init(): void" style="text;strokeColor=none;fillColor=none;align=left;verticalAlign=top;spacingLeft=4;spacingRight=4;overflow=hidden;rotatable=0;points=[[0,0.5],[1,0.5]];portConstraint=eastwest;" parent="v1feKsVr8XCNyYt42_1f-181" vertex="1">
          <mxGeometry y="57.44827586206897" width="250" height="52.55" as="geometry" />
        </mxCell>
        <mxCell id="v1feKsVr8XCNyYt42_1f-185" value="Profession" style="swimlane;fontStyle=1;align=center;verticalAlign=top;childLayout=stackLayout;horizontal=1;startSize=26;horizontalStack=0;resizeParent=1;resizeParentMax=0;resizeLast=0;collapsible=1;marginBottom=0;" parent="1" vertex="1">
          <mxGeometry x="-313.75" y="1090" width="250" height="109.99827586206897" as="geometry" />
        </mxCell>
        <mxCell id="v1feKsVr8XCNyYt42_1f-186" value="allData:ArrayList&lt;Map&lt;String, Data_Items&gt;&gt;" style="text;strokeColor=none;fillColor=none;align=left;verticalAlign=top;spacingLeft=4;spacingRight=4;overflow=hidden;rotatable=0;points=[[0,0.5],[1,0.5]];portConstraint=eastwest;" parent="v1feKsVr8XCNyYt42_1f-185" vertex="1">
          <mxGeometry y="26" width="250" height="24" as="geometry" />
        </mxCell>
        <mxCell id="v1feKsVr8XCNyYt42_1f-187" value="" style="line;strokeWidth=1;fillColor=none;align=left;verticalAlign=middle;spacingTop=-1;spacingLeft=3;spacingRight=3;rotatable=0;labelPosition=right;points=[];portConstraint=eastwest;" parent="v1feKsVr8XCNyYt42_1f-185" vertex="1">
          <mxGeometry y="50" width="250" height="7.448275862068965" as="geometry" />
        </mxCell>
        <mxCell id="v1feKsVr8XCNyYt42_1f-188" value="+ getSort()&#xa;+ setSort()&#xa;+ init(): void" style="text;strokeColor=none;fillColor=none;align=left;verticalAlign=top;spacingLeft=4;spacingRight=4;overflow=hidden;rotatable=0;points=[[0,0.5],[1,0.5]];portConstraint=eastwest;" parent="v1feKsVr8XCNyYt42_1f-185" vertex="1">
          <mxGeometry y="57.44827586206897" width="250" height="52.55" as="geometry" />
        </mxCell>
        <mxCell id="v1feKsVr8XCNyYt42_1f-147" value="SkillSort" style="swimlane;fontStyle=1;align=center;verticalAlign=top;childLayout=stackLayout;horizontal=1;startSize=26;horizontalStack=0;resizeParent=1;resizeParentMax=0;resizeLast=0;collapsible=1;marginBottom=0;" parent="1" vertex="1">
          <mxGeometry x="-956.25" y="970" width="250" height="109.99827586206897" as="geometry" />
        </mxCell>
        <mxCell id="v1feKsVr8XCNyYt42_1f-148" value="allData:ArrayList&lt;Map&lt;String, Data_Items&gt;&gt;" style="text;strokeColor=none;fillColor=none;align=left;verticalAlign=top;spacingLeft=4;spacingRight=4;overflow=hidden;rotatable=0;points=[[0,0.5],[1,0.5]];portConstraint=eastwest;" parent="v1feKsVr8XCNyYt42_1f-147" vertex="1">
          <mxGeometry y="26" width="250" height="24" as="geometry" />
        </mxCell>
        <mxCell id="v1feKsVr8XCNyYt42_1f-149" value="" style="line;strokeWidth=1;fillColor=none;align=left;verticalAlign=middle;spacingTop=-1;spacingLeft=3;spacingRight=3;rotatable=0;labelPosition=right;points=[];portConstraint=eastwest;" parent="v1feKsVr8XCNyYt42_1f-147" vertex="1">
          <mxGeometry y="50" width="250" height="7.448275862068965" as="geometry" />
        </mxCell>
        <mxCell id="v1feKsVr8XCNyYt42_1f-150" value="+ getSort()&#xa;+ setSort()&#xa;+ init(): void" style="text;strokeColor=none;fillColor=none;align=left;verticalAlign=top;spacingLeft=4;spacingRight=4;overflow=hidden;rotatable=0;points=[[0,0.5],[1,0.5]];portConstraint=eastwest;" parent="v1feKsVr8XCNyYt42_1f-147" vertex="1">
          <mxGeometry y="57.44827586206897" width="250" height="52.55" as="geometry" />
        </mxCell>
        <mxCell id="v1feKsVr8XCNyYt42_1f-163" value="ApplySort" style="swimlane;fontStyle=1;align=center;verticalAlign=top;childLayout=stackLayout;horizontal=1;startSize=26;horizontalStack=0;resizeParent=1;resizeParentMax=0;resizeLast=0;collapsible=1;marginBottom=0;" parent="1" vertex="1">
          <mxGeometry x="-956.25" y="1090" width="250" height="109.99827586206897" as="geometry" />
        </mxCell>
        <mxCell id="v1feKsVr8XCNyYt42_1f-164" value="allData:ArrayList&lt;Map&lt;String, Data_Items&gt;&gt;" style="text;strokeColor=none;fillColor=none;align=left;verticalAlign=top;spacingLeft=4;spacingRight=4;overflow=hidden;rotatable=0;points=[[0,0.5],[1,0.5]];portConstraint=eastwest;" parent="v1feKsVr8XCNyYt42_1f-163" vertex="1">
          <mxGeometry y="26" width="250" height="24" as="geometry" />
        </mxCell>
        <mxCell id="v1feKsVr8XCNyYt42_1f-165" value="" style="line;strokeWidth=1;fillColor=none;align=left;verticalAlign=middle;spacingTop=-1;spacingLeft=3;spacingRight=3;rotatable=0;labelPosition=right;points=[];portConstraint=eastwest;" parent="v1feKsVr8XCNyYt42_1f-163" vertex="1">
          <mxGeometry y="50" width="250" height="7.448275862068965" as="geometry" />
        </mxCell>
        <mxCell id="v1feKsVr8XCNyYt42_1f-166" value="+ getSort()&#xa;+ setSort()&#xa;+ init(): void" style="text;strokeColor=none;fillColor=none;align=left;verticalAlign=top;spacingLeft=4;spacingRight=4;overflow=hidden;rotatable=0;points=[[0,0.5],[1,0.5]];portConstraint=eastwest;" parent="v1feKsVr8XCNyYt42_1f-163" vertex="1">
          <mxGeometry y="57.44827586206897" width="250" height="52.55" as="geometry" />
        </mxCell>
        <mxCell id="v1feKsVr8XCNyYt42_1f-189" value="Domain" style="swimlane;fontStyle=1;align=center;verticalAlign=top;childLayout=stackLayout;horizontal=1;startSize=26;horizontalStack=0;resizeParent=1;resizeParentMax=0;resizeLast=0;collapsible=1;marginBottom=0;" parent="1" vertex="1">
          <mxGeometry x="-313.75" y="1220" width="250" height="109.99827586206897" as="geometry" />
        </mxCell>
        <mxCell id="v1feKsVr8XCNyYt42_1f-190" value="allData:ArrayList&lt;Map&lt;String, Data_Items&gt;&gt;" style="text;strokeColor=none;fillColor=none;align=left;verticalAlign=top;spacingLeft=4;spacingRight=4;overflow=hidden;rotatable=0;points=[[0,0.5],[1,0.5]];portConstraint=eastwest;" parent="v1feKsVr8XCNyYt42_1f-189" vertex="1">
          <mxGeometry y="26" width="250" height="24" as="geometry" />
        </mxCell>
        <mxCell id="v1feKsVr8XCNyYt42_1f-191" value="" style="line;strokeWidth=1;fillColor=none;align=left;verticalAlign=middle;spacingTop=-1;spacingLeft=3;spacingRight=3;rotatable=0;labelPosition=right;points=[];portConstraint=eastwest;" parent="v1feKsVr8XCNyYt42_1f-189" vertex="1">
          <mxGeometry y="50" width="250" height="7.448275862068965" as="geometry" />
        </mxCell>
        <mxCell id="v1feKsVr8XCNyYt42_1f-192" value="+ getSort()&#xa;+ setSort()&#xa;+ init(): void" style="text;strokeColor=none;fillColor=none;align=left;verticalAlign=top;spacingLeft=4;spacingRight=4;overflow=hidden;rotatable=0;points=[[0,0.5],[1,0.5]];portConstraint=eastwest;" parent="v1feKsVr8XCNyYt42_1f-189" vertex="1">
          <mxGeometry y="57.44827586206897" width="250" height="52.55" as="geometry" />
        </mxCell>
        <mxCell id="v1feKsVr8XCNyYt42_1f-198" value="Total" style="swimlane;fontStyle=1;align=center;verticalAlign=top;childLayout=stackLayout;horizontal=1;startSize=26;horizontalStack=0;resizeParent=1;resizeParentMax=0;resizeLast=0;collapsible=1;marginBottom=0;" parent="1" vertex="1">
          <mxGeometry x="-956.25" y="1220" width="250" height="109.99827586206897" as="geometry" />
        </mxCell>
        <mxCell id="v1feKsVr8XCNyYt42_1f-199" value="Total: DataItems" style="text;strokeColor=none;fillColor=none;align=left;verticalAlign=top;spacingLeft=4;spacingRight=4;overflow=hidden;rotatable=0;points=[[0,0.5],[1,0.5]];portConstraint=eastwest;" parent="v1feKsVr8XCNyYt42_1f-198" vertex="1">
          <mxGeometry y="26" width="250" height="24" as="geometry" />
        </mxCell>
        <mxCell id="v1feKsVr8XCNyYt42_1f-200" value="" style="line;strokeWidth=1;fillColor=none;align=left;verticalAlign=middle;spacingTop=-1;spacingLeft=3;spacingRight=3;rotatable=0;labelPosition=right;points=[];portConstraint=eastwest;" parent="v1feKsVr8XCNyYt42_1f-198" vertex="1">
          <mxGeometry y="50" width="250" height="7.448275862068965" as="geometry" />
        </mxCell>
        <mxCell id="v1feKsVr8XCNyYt42_1f-201" value="+ getSort()&#xa;+ setSort()&#xa;+ init(): void" style="text;strokeColor=none;fillColor=none;align=left;verticalAlign=top;spacingLeft=4;spacingRight=4;overflow=hidden;rotatable=0;points=[[0,0.5],[1,0.5]];portConstraint=eastwest;" parent="v1feKsVr8XCNyYt42_1f-198" vertex="1">
          <mxGeometry y="57.44827586206897" width="250" height="52.55" as="geometry" />
        </mxCell>
        <mxCell id="v1feKsVr8XCNyYt42_1f-202" value="DataItems" style="swimlane;fontStyle=1;align=center;verticalAlign=top;childLayout=stackLayout;horizontal=1;startSize=26;horizontalStack=0;resizeParent=1;resizeParentMax=0;resizeLast=0;collapsible=1;marginBottom=0;" parent="1" vertex="1">
          <mxGeometry x="-673.75" y="1220" width="250" height="209.99827586206897" as="geometry" />
        </mxCell>
        <mxCell id="v1feKsVr8XCNyYt42_1f-203" value="-demand_num:int 需求人数&#xa;-demand_rate:int 需求比重&#xa;-demand_mom:int 需求人数同比&#xa;-demand_yoy:int 需求人数环比&#xa;-apply_num:int 求职人数&#xa;-apply_mom:double 求职人数同比&#xa;-apply_yoy:double 求职人数环比&#xa;-app_dem_rate:double 求人倍率&#xa;-vac_dem_rate:double 岗位空缺与求职人比率" style="text;strokeColor=none;fillColor=none;align=left;verticalAlign=top;spacingLeft=4;spacingRight=4;overflow=hidden;rotatable=0;points=[[0,0.5],[1,0.5]];portConstraint=eastwest;" parent="v1feKsVr8XCNyYt42_1f-202" vertex="1">
          <mxGeometry y="26" width="250" height="144" as="geometry" />
        </mxCell>
        <mxCell id="v1feKsVr8XCNyYt42_1f-204" value="" style="line;strokeWidth=1;fillColor=none;align=left;verticalAlign=middle;spacingTop=-1;spacingLeft=3;spacingRight=3;rotatable=0;labelPosition=right;points=[];portConstraint=eastwest;" parent="v1feKsVr8XCNyYt42_1f-202" vertex="1">
          <mxGeometry y="170" width="250" height="7.448275862068965" as="geometry" />
        </mxCell>
        <mxCell id="v1feKsVr8XCNyYt42_1f-205" value="+每个属性包括一个get和set方法" style="text;strokeColor=none;fillColor=none;align=left;verticalAlign=top;spacingLeft=4;spacingRight=4;overflow=hidden;rotatable=0;points=[[0,0.5],[1,0.5]];portConstraint=eastwest;" parent="v1feKsVr8XCNyYt42_1f-202" vertex="1">
          <mxGeometry y="177.44827586206895" width="250" height="32.55" as="geometry" />
        </mxCell>
        <mxCell id="v1feKsVr8XCNyYt42_1f-73" value="" style="group" parent="1" vertex="1" connectable="0">
          <mxGeometry x="70" y="1480" width="1210" height="850" as="geometry" />
        </mxCell>
        <mxCell id="v1feKsVr8XCNyYt42_1f-78" value="DAO" style="shape=umlFrame;whiteSpace=wrap;html=1;rounded=0;shadow=0;comic=0;labelBackgroundColor=none;strokeWidth=1;fontFamily=Verdana;fontSize=10;align=center;" parent="v1feKsVr8XCNyYt42_1f-73" vertex="1">
          <mxGeometry x="-50" width="1260" height="850" as="geometry" />
        </mxCell>
        <mxCell id="v1feKsVr8XCNyYt42_1f-74" value="ManageInvestPeriod" style="swimlane;fontStyle=1;align=center;verticalAlign=top;childLayout=stackLayout;horizontal=1;startSize=26;horizontalStack=0;resizeParent=1;resizeParentMax=0;resizeLast=0;collapsible=1;marginBottom=0;" parent="v1feKsVr8XCNyYt42_1f-73" vertex="1">
          <mxGeometry x="776.2264150943397" y="317.7692307692307" width="365.28301886792457" height="140.4429177718833" as="geometry" />
        </mxCell>
        <mxCell id="v1feKsVr8XCNyYt42_1f-75" value=" " style="text;strokeColor=none;fillColor=none;align=left;verticalAlign=top;spacingLeft=4;spacingRight=4;overflow=hidden;rotatable=0;points=[[0,0.5],[1,0.5]];portConstraint=eastwest;" parent="v1feKsVr8XCNyYt42_1f-74" vertex="1">
          <mxGeometry y="26" width="365.28301886792457" height="31.655172413793103" as="geometry" />
        </mxCell>
        <mxCell id="v1feKsVr8XCNyYt42_1f-76" value="" style="line;strokeWidth=1;fillColor=none;align=left;verticalAlign=middle;spacingTop=-1;spacingLeft=3;spacingRight=3;rotatable=0;labelPosition=right;points=[];portConstraint=eastwest;" parent="v1feKsVr8XCNyYt42_1f-74" vertex="1">
          <mxGeometry y="57.6551724137931" width="365.28301886792457" height="9.740053050397877" as="geometry" />
        </mxCell>
        <mxCell id="v1feKsVr8XCNyYt42_1f-77" value="+create(String begintime,String endtime):int;新增上报时限&#xa;+change(String begintime,String endtime);修改上报时限" style="text;strokeColor=none;fillColor=none;align=left;verticalAlign=top;spacingLeft=4;spacingRight=4;overflow=hidden;rotatable=0;points=[[0,0.5],[1,0.5]];portConstraint=eastwest;" parent="v1feKsVr8XCNyYt42_1f-74" vertex="1">
          <mxGeometry y="67.39522546419099" width="365.28301886792457" height="73.04769230769232" as="geometry" />
        </mxCell>
        <mxCell id="v1feKsVr8XCNyYt42_1f-79" value="SystemStateDAO" style="swimlane;fontStyle=1;align=center;verticalAlign=top;childLayout=stackLayout;horizontal=1;startSize=26;horizontalStack=0;resizeParent=1;resizeParentMax=0;resizeLast=0;collapsible=1;marginBottom=0;" parent="v1feKsVr8XCNyYt42_1f-73" vertex="1">
          <mxGeometry x="958.867924528302" y="50.00615384615386" width="216.8867924528302" height="109.68599469496021" as="geometry" />
        </mxCell>
        <mxCell id="v1feKsVr8XCNyYt42_1f-80" value=" " style="text;strokeColor=none;fillColor=none;align=left;verticalAlign=top;spacingLeft=4;spacingRight=4;overflow=hidden;rotatable=0;points=[[0,0.5],[1,0.5]];portConstraint=eastwest;" parent="v1feKsVr8XCNyYt42_1f-79" vertex="1">
          <mxGeometry y="26" width="216.8867924528302" height="31.655172413793103" as="geometry" />
        </mxCell>
        <mxCell id="v1feKsVr8XCNyYt42_1f-81" value="" style="line;strokeWidth=1;fillColor=none;align=left;verticalAlign=middle;spacingTop=-1;spacingLeft=3;spacingRight=3;rotatable=0;labelPosition=right;points=[];portConstraint=eastwest;" parent="v1feKsVr8XCNyYt42_1f-79" vertex="1">
          <mxGeometry y="57.6551724137931" width="216.8867924528302" height="9.740053050397877" as="geometry" />
        </mxCell>
        <mxCell id="v1feKsVr8XCNyYt42_1f-82" value="+getSystemState():SystemState;查看系统状态" style="text;strokeColor=none;fillColor=none;align=left;verticalAlign=top;spacingLeft=4;spacingRight=4;overflow=hidden;rotatable=0;points=[[0,0.5],[1,0.5]];portConstraint=eastwest;" parent="v1feKsVr8XCNyYt42_1f-79" vertex="1">
          <mxGeometry y="67.39522546419099" width="216.8867924528302" height="42.29076923076923" as="geometry" />
        </mxCell>
        <mxCell id="v1feKsVr8XCNyYt42_1f-83" value="DataDAO" style="swimlane;fontStyle=1;align=center;verticalAlign=top;childLayout=stackLayout;horizontal=1;startSize=26;horizontalStack=0;resizeParent=1;resizeParentMax=0;resizeLast=0;collapsible=1;marginBottom=0;" parent="v1feKsVr8XCNyYt42_1f-73" vertex="1">
          <mxGeometry x="114.15094339622642" y="350.77538461538467" width="616.4150943396227" height="436.6090716180371" as="geometry" />
        </mxCell>
        <mxCell id="v1feKsVr8XCNyYt42_1f-84" value=" " style="text;strokeColor=none;fillColor=none;align=left;verticalAlign=top;spacingLeft=4;spacingRight=4;overflow=hidden;rotatable=0;points=[[0,0.5],[1,0.5]];portConstraint=eastwest;" parent="v1feKsVr8XCNyYt42_1f-83" vertex="1">
          <mxGeometry y="26" width="616.4150943396227" height="31.655172413793103" as="geometry" />
        </mxCell>
        <mxCell id="v1feKsVr8XCNyYt42_1f-85" value="" style="line;strokeWidth=1;fillColor=none;align=left;verticalAlign=middle;spacingTop=-1;spacingLeft=3;spacingRight=3;rotatable=0;labelPosition=right;points=[];portConstraint=eastwest;" parent="v1feKsVr8XCNyYt42_1f-83" vertex="1">
          <mxGeometry y="57.6551724137931" width="616.4150943396227" height="9.740053050397877" as="geometry" />
        </mxCell>
        <mxCell id="v1feKsVr8XCNyYt42_1f-86" value="+saveData(Data data):int;//保存已填写数据&#xa;+report_c(String username):int;//监测点上报给市级&#xa;+report_p(String username):int;//市级将监测点数据上报给省级&#xa;+pass_p(String username):int;//省级通过监测点数据审批&#xa;+back(String username):int;//数据退回&#xa;-summary_c(String cityname):Data;//市数据汇总&#xa;-summary_p(String provname):Data;//省数据汇总&#xa;-selectDataByUser(String userid,String begintime,String endtime):List&lt;Data&gt;;//获取监测点数据&#xa;-selectDataByCity(String cityname,String begintime,String endtime):List&lt;Data&gt;;//获取市数据&#xa;-selectDataByProvince(String provname,String begintime,String endtime):List&lt;Data&gt;;//获取省数据&#xa;-exportByMon(String time):int;//监测点用户导出本期数据&#xa;-exportByCity(String time):int;//市用户导出数据&#xa;-exportByProv(String time):int;//省用户导出数据&#xa;-search_p(String key):List&lt;Data&gt;;//省模糊搜索，对用户ID，名称，表名，调查期匹配&#xa;-search_c(String key):List&lt;Data&gt;;//市模糊搜索，对用户ID，名称，表名，调查期匹配&#xa;-search_m(String key):List&lt;Data&gt;;//监测点模糊搜索，对用户ID，名称，表名，调查期匹配&#xa;-comparative_analysis(String username1,String username2,String time):List&lt;Data&gt;;//两个监测点对比分析;&#xa;-trend_analysis(String username,String begintime,String endtime):List&lt;Data&gt;;//趋势分析&#xa;-checkRight(String username):int;验证用户权限" style="text;strokeColor=none;fillColor=none;align=left;verticalAlign=top;spacingLeft=4;spacingRight=4;overflow=hidden;rotatable=0;points=[[0,0.5],[1,0.5]];portConstraint=eastwest;" parent="v1feKsVr8XCNyYt42_1f-83" vertex="1">
          <mxGeometry y="67.39522546419099" width="616.4150943396227" height="369.21384615384613" as="geometry" />
        </mxCell>
        <mxCell id="v1feKsVr8XCNyYt42_1f-87" value="NotificationDAO" style="swimlane;fontStyle=1;align=center;verticalAlign=top;childLayout=stackLayout;horizontal=1;startSize=26;horizontalStack=0;resizeParent=1;resizeParentMax=0;resizeLast=0;collapsible=1;marginBottom=0;" parent="v1feKsVr8XCNyYt42_1f-73" vertex="1">
          <mxGeometry x="502.26415094339626" y="50.00615384615386" width="285.37735849056605" height="140.4429177718833" as="geometry" />
        </mxCell>
        <mxCell id="v1feKsVr8XCNyYt42_1f-88" value=" " style="text;strokeColor=none;fillColor=none;align=left;verticalAlign=top;spacingLeft=4;spacingRight=4;overflow=hidden;rotatable=0;points=[[0,0.5],[1,0.5]];portConstraint=eastwest;" parent="v1feKsVr8XCNyYt42_1f-87" vertex="1">
          <mxGeometry y="26" width="285.37735849056605" height="31.655172413793103" as="geometry" />
        </mxCell>
        <mxCell id="v1feKsVr8XCNyYt42_1f-89" value="" style="line;strokeWidth=1;fillColor=none;align=left;verticalAlign=middle;spacingTop=-1;spacingLeft=3;spacingRight=3;rotatable=0;labelPosition=right;points=[];portConstraint=eastwest;" parent="v1feKsVr8XCNyYt42_1f-87" vertex="1">
          <mxGeometry y="57.6551724137931" width="285.37735849056605" height="9.740053050397877" as="geometry" />
        </mxCell>
        <mxCell id="v1feKsVr8XCNyYt42_1f-90" value="+release(Announcement ann ):int;//发布通知&#xa;+delete(String ann_id);//删除通知&#xa;+sellectAll():List&lt;Announcement&gt;;//浏览通知" style="text;strokeColor=none;fillColor=none;align=left;verticalAlign=top;spacingLeft=4;spacingRight=4;overflow=hidden;rotatable=0;points=[[0,0.5],[1,0.5]];portConstraint=eastwest;" parent="v1feKsVr8XCNyYt42_1f-87" vertex="1">
          <mxGeometry y="67.39522546419099" width="285.37735849056605" height="73.04769230769232" as="geometry" />
        </mxCell>
        <mxCell id="v1feKsVr8XCNyYt42_1f-91" value="UserDAO" style="swimlane;fontStyle=1;align=center;verticalAlign=top;childLayout=stackLayout;horizontal=1;startSize=26;horizontalStack=0;resizeParent=1;resizeParentMax=0;resizeLast=0;collapsible=1;marginBottom=0;" parent="v1feKsVr8XCNyYt42_1f-73" vertex="1">
          <mxGeometry x="-20" y="50" width="400" height="248.34005305039787" as="geometry" />
        </mxCell>
        <mxCell id="v1feKsVr8XCNyYt42_1f-93" value="" style="line;strokeWidth=1;fillColor=none;align=left;verticalAlign=middle;spacingTop=-1;spacingLeft=3;spacingRight=3;rotatable=0;labelPosition=right;points=[];portConstraint=eastwest;" parent="v1feKsVr8XCNyYt42_1f-91" vertex="1">
          <mxGeometry y="26" width="400" height="9.740053050397877" as="geometry" />
        </mxCell>
        <mxCell id="v1feKsVr8XCNyYt42_1f-94" value="+is_login(String id):int;//查询登录状态（1表示已登录，0表示未登录）&#xa;+check_user(String id):int;//是否存在用户（1表示存在，0表示不存在）&#xa;+check_pwd(String pwd):int;//验证密码&#xa;+add_user(User u):int;//增加新用户+remove_user(String id):int;//删除用户&#xa;+update_Moniuser(Moni_User u):int;//更新监测点用户信息&#xa;+update_Cityuser(City_User u):int;//更新市用户信息&#xa;+update_Provuser(Prov_User u):int;//更新省用户信息&#xa;+update_Systemuser(System_User u):int;//更新系统管理员用户信息&#xa;+update_pwd(String id):int;//修改密码&#xa;+get_user_by_id(String id):User;//通过用户id查询用户信息&#xa;+get_user_by_name(String name):User;//通过用户名查询用户信息&#xa;+check_by_id(String id):int;//通过用户id查询用户权限&#xa;+check_info(String id,Moni_User u):int;//修改备案信息&#xa;+check_info_apply(String id):int;//申请修改备案信息&#xa;" style="text;strokeColor=none;fillColor=none;align=left;verticalAlign=top;spacingLeft=4;spacingRight=4;overflow=hidden;rotatable=0;points=[[0,0.5],[1,0.5]];portConstraint=eastwest;" parent="v1feKsVr8XCNyYt42_1f-91" vertex="1">
          <mxGeometry y="35.740053050397876" width="400" height="212.6" as="geometry" />
        </mxCell>
      </root>
    </mxGraphModel>
  </diagram>
</mxfile>
